<?xml version="1.0" encoding="UTF-8" standalone="no"?>
<svg
   xmlns:dc="http://purl.org/dc/elements/1.1/"
   xmlns:cc="http://creativecommons.org/ns#"
   xmlns:rdf="http://www.w3.org/1999/02/22-rdf-syntax-ns#"
   xmlns:svg="http://www.w3.org/2000/svg"
   xmlns="http://www.w3.org/2000/svg"
   xmlns:sodipodi="http://sodipodi.sourceforge.net/DTD/sodipodi-0.dtd"
   xmlns:inkscape="http://www.inkscape.org/namespaces/inkscape"
   inkscape:version="1.0 (4035a4fb49, 2020-05-01)"
   sodipodi:docname="credit9-iconape.svg"
   version="1.1"
   text-rendering="geometricPrecision"
   shape-rendering="geometricPrecision"
   viewBox="0 0 379 175"
   id="ehh46vy8odcj1">
  <metadata
     id="metadata79">
    <rdf:RDF>
      <cc:Work
         rdf:about="">
        <dc:format>image/svg+xml</dc:format>
        <dc:type
           rdf:resource="http://purl.org/dc/dcmitype/StillImage" />
      </cc:Work>
    </rdf:RDF>
  </metadata>
  <defs
     id="defs77" />
  <sodipodi:namedview
     inkscape:current-layer="ehh46vy8odcj2"
     inkscape:window-maximized="1"
     inkscape:window-y="-8"
     inkscape:window-x="-8"
     inkscape:cy="57.485767"
     inkscape:cx="144.384"
     inkscape:zoom="1.1228875"
     showgrid="false"
     id="namedview75"
     inkscape:window-height="705"
     inkscape:window-width="1366"
     inkscape:pageshadow="2"
     inkscape:pageopacity="0"
     guidetolerance="10"
     gridtolerance="10"
     objecttolerance="10"
     borderopacity="1"
     bordercolor="#666666"
     pagecolor="#ffffff"
     inkscape:document-rotation="0" />
  <style
     id="style2"><![CDATA[#ehh46vy8odcj35_to {animation: ehh46vy8odcj35_to__to 8000ms linear infinite normal forwards}@keyframes ehh46vy8odcj35_to__to { 0% {transform: translate(-4.891155px,4.102687px)} 16% {transform: translate(-4.891155px,4.140187px)} 16.333333% {transform: translate(-7.698566px,4.131872px)} 21.666667% {transform: translate(1.643640px,0.640851px)} 50.666667% {transform: translate(1.643640px,0.640851px)} 54.666667% {transform: translate(-3.575583px,4.102687px)} 76.666667% {transform: translate(-3.575583px,4.102687px)} 80% {transform: translate(-16.857461px,4.102687px)} 82% {transform: translate(-14.201085px,4.102687px)} 88.333333% {transform: translate(-14.201085px,4.102687px)} 89% {transform: translate(2.516353px,5.277279px)} 100% {transform: translate(2.516353px,5.277279px)} }#ehh46vy8odcj36_to {animation: ehh46vy8odcj36_to__to 8000ms linear infinite normal forwards}@keyframes ehh46vy8odcj36_to__to { 0% {transform: translate(-3.649679px,5.979292px)} 16% {transform: translate(-3.649679px,6.016792px)} 16.333333% {transform: translate(-6.457089px,6.008477px)} 21.666667% {transform: translate(2.885117px,2.517457px)} 50.666667% {transform: translate(2.885117px,2.517457px)} 54.666667% {transform: translate(-2.334106px,5.979292px)} 76.666667% {transform: translate(-2.334106px,5.979292px)} 80% {transform: translate(-15.615984px,5.979292px)} 81.666667% {transform: translate(-12.959609px,5.979292px)} 88.333333% {transform: translate(-12.959609px,5.979292px)} 89% {transform: translate(3.757829px,7.153884px)} 100% {transform: translate(3.757829px,7.153884px)} }]]></style>
  <g
     id="ehh46vy8odcj2"
     style="opacity:1">
    <g
       id="ehh46vy8odcj3">
      <g
         id="ehh46vy8odcj4">
        <g
           id="ehh46vy8odcj6" />
        <g
           id="g1048">
          <g
             id="ehh46vy8odcj7"
             style="fill:#000027;fill-opacity:1">
            <polygon
               stroke-width="1"
               stroke="none"
               fill="#00c47d"
               points="22.2,50 1.7,37.6 6,59.5 13.4,61.8 14.3,54.6 21.5,54.2 "
               id="ehh46vy8odcj8"
               style="fill:#6e8c89;fill-opacity:1" />
            <g
               id="ehh46vy8odcj9"
               style="fill:#000027;fill-opacity:1">
              <g
                 id="ehh46vy8odcj10"
                 style="fill:#000027;fill-opacity:1">
                <path
                   stroke-width="1"
                   stroke="none"
                   fill="#000000"
                   d="m 24.2,52.1 -0.7,4.4 -7.2,0.4 -0.9,7.6 -8.1,-2.5 0.1,0.4 47.2,68.8 16.3,-11 z"
                   id="ehh46vy8odcj11"
                   style="fill:#6e8c89;fill-opacity:1" />
              </g>
            </g>
          </g>
          <g
             id="ehh46vy8odcj12"
             style="fill:#000027;fill-opacity:1">
            <g
               id="ehh46vy8odcj13"
               style="fill:#000027;fill-opacity:1">
              <g
                 id="ehh46vy8odcj14"
                 style="fill:#000027;fill-opacity:1">
                <ellipse
                   cy="0"
                   cx="0"
                   stroke-width="1"
                   stroke="none"
                   fill="#000000"
                   transform="matrix(0.004786,-1,1,0.004786,36.258732,104.60862)"
                   ry="18.299999"
                   rx="24.200001"
                   id="ehh46vy8odcj15"
                   style="fill:#6e8c89;fill-opacity:1" />
                <path
                   stroke-miterlimit="10"
                   stroke-linecap="round"
                   stroke-width="4.2778"
                   stroke="#ffffff"
                   fill="none"
                   d="m 31.6,87.7 c 0,0 -18.4,15.2 0.1,34.5"
                   id="ehh46vy8odcj16"
                   style="stroke:#d8d8ff;stroke-opacity:1;fill:#6e8c89;fill-opacity:1" />
              </g>
              <g
                 id="ehh46vy8odcj17"
                 style="fill:#000027;fill-opacity:1">
                <ellipse
                   cy="0"
                   cx="0"
                   stroke-width="1"
                   stroke="none"
                   fill="#000000"
                   transform="matrix(0.004786,-1,1,0.004786,137.4079,105.08701)"
                   ry="18.299999"
                   rx="24.200001"
                   id="ehh46vy8odcj18"
                   style="fill:#6e8c89;fill-opacity:1" />
                <path
                   stroke-miterlimit="10"
                   stroke-linecap="round"
                   stroke-width="4.1843"
                   stroke="#ffffff"
                   fill="none"
                   d="m 142,89.6 c 0,0 18.8,15.9 -2.3,34.4"
                   id="ehh46vy8odcj19"
                   style="stroke:#d8d8ff;stroke-opacity:1;fill:#6e8c89;fill-opacity:1" />
              </g>
              <ellipse
                 cy="0"
                 cx="0"
                 stroke-width="1"
                 stroke="none"
                 fill="#000000"
                 transform="matrix(0.004786,-1,1,0.004786,87.918389,126.88634)"
                 ry="45.900002"
                 rx="41.200001"
                 id="ehh46vy8odcj20"
                 style="fill:#6e8c89;fill-opacity:1" />
              <circle
                 cy="0"
                 cx="0"
                 stroke-width="1"
                 stroke="none"
                 fill="#000000"
                 transform="translate(86.8,86.2)"
                 r="53.299999"
                 id="ehh46vy8odcj21"
                 style="fill:#6e8c89;fill-opacity:1" />
              <ellipse
                 cy="0"
                 cx="0"
                 stroke-width="1"
                 stroke="none"
                 fill="#ffffff"
                 transform="matrix(0.004786,-1,1,0.004786,87.229239,139.31069)"
                 ry="33.5"
                 rx="17.299999"
                 id="ehh46vy8odcj22"
                 style="opacity:1;fill:#d8d8ff;fill-opacity:1" />
              <path
                 stroke-width="1"
                 stroke="none"
                 fill="#ffffff"
                 d="M 101.2,70.2 C 86.4,70.1 74.4,82 74.4,96.7 c 0,2.4 5.6,-4.3 13,-3 2.9,0.5 5,2.6 6.2,5.3 4.3,8.8 10.5,16 17.8,22.5 9.5,-4 16.2,-13.4 16.3,-24.4 0.1,-14.9 -11.8,-26.9 -26.5,-26.9 z"
                 id="ehh46vy8odcj23"
                 style="fill:#d8d8ff;fill-opacity:1" />
              <path
                 stroke-width="1"
                 stroke="none"
                 fill="#ffffff"
                 d="m 51.3,118.6 c 1.1,-0.1 2.3,0 3.3,0.1 4.2,0.4 8.6,0.3 12.5,-1.6 4.9,-2.4 8.8,-7.2 11.9,-11.8 1.1,-1.6 1.6,-3.4 2.4,-5.3 0.5,-1.2 0.2,-5.3 1.4,-5.9 2.4,-1.1 6.2,2 9,1.9 C 91.5,81.6 80.2,69.9 66.2,69.8 52,69.7 40.4,81.6 40.3,96.3 c -0.1,9.4 4.3,17.4 11,22.3 z"
                 id="ehh46vy8odcj24"
                 style="fill:#d8d8ff;fill-opacity:1" />
              <path
                 stroke-width="1"
                 stroke="none"
                 fill="#000000"
                 d="m 92.4,135.8 c -1.3,0.5 -1.7,-4 -0.4,-4.9 l 3.6,-2.4 c 0.7,-0.5 1.4,0.6 1.6,2.3 v 0 c 0.1,1.7 -0.4,3.4 -1.1,3.5 z"
                 id="ehh46vy8odcj25"
                 style="fill:#6e8c89;fill-opacity:1" />
              <path
                 stroke-width="1"
                 stroke="none"
                 fill="#000000"
                 d="m 86.6,135.8 c 1.3,0.5 1.7,-4 0.5,-4.9 l -3.6,-2.4 c -0.7,-0.5 -1.4,0.5 -1.6,2.3 v 0 c -0.1,1.7 0.4,3.4 1.1,3.5 z"
                 id="ehh46vy8odcj26"
                 style="fill:#6e8c89;fill-opacity:1" />
              <g
                 id="ehh46vy8odcj27"
                 style="fill:#000027;fill-opacity:1">
                <g
                   id="ehh46vy8odcj28"
                   style="fill:#000027;fill-opacity:1">
                  <path
                     stroke-width="1"
                     stroke="none"
                     fill="#000000"
                     d="m 35.5,93.1 c 0.8,-0.1 1.6,-0.1 2.4,-0.2 0.3,0 0.6,-0.3 0.7,-0.5 1,-3.4 3.4,-5.5 6.9,-5.6 3.2,-0.1 6.3,-0.1 9.5,-0.1 6,0 12,0.1 18.1,0.1 3.1,0 6,0.7 8.2,3 0.2,0.2 0.6,0.3 0.9,0.3 2.1,0 4.2,0 6.3,0 0.3,0 0.7,-0.1 0.9,-0.3 2,-2 4.5,-2.9 7.3,-2.9 9.1,0 18.2,0.1 27.4,0.1 2.7,0 5.1,0.9 6.8,3.2 0.5,0.7 0.9,1.7 1.1,2.5 0.2,0.5 0.3,0.7 0.8,0.7 0.6,0 1.1,0 1.8,0 0,2.1 0,4.1 0,6.2 -1,0 -1.9,0 -2.9,0 -0.4,3 -0.7,5.9 -1,8.9 -0.2,2 -0.4,3.9 -0.8,5.8 -0.8,3.2 -2.6,5.8 -6.1,6.7 -0.8,0.2 -1.6,0.3 -2.4,0.3 -7.6,0 -15.3,-0.1 -22.9,-0.1 -1.8,0 -6.5,-6.2 -7.2,-8.5 -1.6,-5.1 -2.5,-10.4 -3.2,-15.7 0,-0.1 0,-0.2 -0.1,-0.4 -1.7,0 -3.4,0 -5.1,0 -0.4,2.5 -0.8,5.1 -1.3,7.6 -0.7,3.8 -1.6,7.6 -3.2,11.2 -0.7,1.5 -1.5,2.8 -2.5,4.1 -0.8,1.2 -2.1,1.6 -3.6,1.6 -7.5,-0.1 -15,-0.1 -22.5,-0.1 -5.2,0 -8.6,-2.9 -9.3,-8.1 -0.6,-4.4 -1,-8.7 -1.5,-13.1 0,-0.1 0,-0.3 -0.1,-0.5 -1.1,0 -2.3,0 -3.4,0 -0.1,-2.2 -0.1,-4.2 0,-6.2 z m 25.1,0 c -3.3,0 -6.5,0 -9.8,0 -0.6,0 -1.2,0 -1.7,0.1 -2.3,0.4 -4,2.5 -3.8,4.7 0.4,4.1 0.8,8.1 1.2,12.2 0.3,3 2.3,4.7 5.4,4.7 5.6,0 11.2,0 16.8,0.1 1.7,0 2.7,-0.6 3.5,-2 0.3,-0.5 0.5,-1 0.7,-1.5 1.8,-4.3 2.5,-8.9 3,-13.5 0.2,-1.8 -0.7,-3.3 -2.4,-4.1 -0.9,-0.4 -2,-0.6 -3,-0.7 -3.3,0 -6.6,0 -9.9,0 z m 49.4,0.2 c -3.4,0 -6.9,-0.1 -10.3,0 -3.5,0 -5.5,2.3 -5,5.7 0.3,2.2 0.7,4.5 1.1,6.7 0.5,2.6 1.2,5.2 2.6,7.6 0.7,1.2 1.7,1.7 3.1,1.7 5.6,0 11.3,0 16.9,0.1 3.2,0 5.1,-1.6 5.5,-4.8 0.4,-3 0.7,-6 1,-9.1 0.1,-1.1 0.3,-2.1 0.3,-3.2 0.1,-2.6 -2.1,-4.6 -5,-4.7 -3.4,0 -6.8,0 -10.2,0 z"
                     id="ehh46vy8odcj29"
                     style="fill:#6e8c89;fill-opacity:1" />
                  <path
                     stroke-width="1"
                     stroke="none"
                     fill="#00c47d"
                     d="m 60.6,93.1 c 3.3,0 6.6,0 9.9,0.1 1,0 2.1,0.2 3,0.7 1.6,0.8 2.6,2.3 2.4,4.1 -0.5,4.6 -1.3,9.2 -3,13.5 -0.2,0.5 -0.5,1 -0.7,1.5 -0.8,1.4 -1.8,2 -3.5,2 -5.6,-0.1 -11.2,-0.1 -16.8,-0.1 -3.1,0 -5,-1.7 -5.4,-4.7 -0.5,-4 -0.8,-8.1 -1.2,-12.2 -0.2,-2.2 1.5,-4.2 3.8,-4.7 0.6,-0.1 1.2,-0.1 1.7,-0.1 3.3,-0.2 6.5,-0.1 9.8,-0.1 z"
                     id="ehh46vy8odcj30"
                     style="fill:#d8d8ff;fill-opacity:1" />
                  <path
                     stroke-width="1"
                     stroke="none"
                     fill="#00c47d"
                     d="m 110,93.3 c 3.4,0 6.8,0 10.2,0.1 2.9,0 5.1,2.1 5,4.7 0,1.1 -0.2,2.1 -0.3,3.2 -0.3,3 -0.6,6 -1,9.1 -0.4,3.2 -2.3,4.8 -5.5,4.8 -5.6,0 -11.3,-0.1 -16.9,-0.1 -1.4,0 -2.4,-0.6 -3.1,-1.7 -1.4,-2.3 -2.1,-4.9 -2.6,-7.6 -0.5,-2.2 -0.8,-4.5 -1.1,-6.7 -0.5,-3.4 1.6,-5.7 5,-5.7 3.5,-0.1 6.9,-0.1 10.3,-0.1 z"
                     id="ehh46vy8odcj31"
                     style="fill:#d8d8ff;fill-opacity:1" />
                </g>
              </g>
            </g>
            <g
               id="ehh46vy8odcj32"
               style="fill:#000027;fill-opacity:1">
              <path
                 stroke-width="1"
                 stroke="none"
                 fill="#000000"
                 d="m 132,131.9 c -3,5.7 -7.8,10.1 -12.9,13 -5.2,3 -10.7,4.7 -16.2,5.6 -5.5,1 -11.1,1.1 -16.6,0.8 -5.5,-0.3 -10.8,-1.2 -16.1,-2.6 5.4,0.6 10.7,0.6 16,0.1 5.3,-0.5 10.5,-1.5 15.4,-3.1 4.9,-1.6 9.5,-3.9 13.3,-7 3.8,-3 6.6,-6.8 8.1,-11 z"
                 id="ehh46vy8odcj33"
                 style="fill:#6e8c89;fill-opacity:1" />
            </g>
          </g>
          <path
             stroke-width="1"
             stroke="none"
             fill="#000000"
             d="m 135.2,83.5 c 11.3,-7.1 9.2,-34.3 -3.5,-46.3 -8.4,-8 -14.8,-10 -16.8,-18.4 -1.5,-6.3 6.61811,-4.713612 11.9,-6.6 0,-3.772776 -44.7,-26.8 -76.9,6.6 C 29.4,40 35,63 39.4,68.6 c 2.2,2.9 10.3,0.9 22.1,-4.5 68.2,-31.2 59.4,28.4 73.7,19.4 z"
             id="ehh46vy8odcj34"
             style="fill:#6e8c89;fill-opacity:1" />
          <g
             transform="translate(-4.891155,4.102687)"
             id="ehh46vy8odcj35_to"
             style="fill:#000027;fill-opacity:1">
            <path
               stroke-width="1"
               stroke="none"
               fill="#000000"
               d="m 117.36742,104.58579 h -1.25317 c -2.16455,0 -3.87342,-1.98529 -3.87342,-4.5 v 0 c 0,-2.514705 1.70887,-4.499999 3.87342,-4.499999 h 1.25317 c 2.16455,0 3.87341,1.985294 3.87341,4.499999 v 0 c -0.11392,2.51471 -1.82278,4.5 -3.87341,4.5 z"
               id="ehh46vy8odcj35"
               style="fill:#6e8c89;fill-opacity:1" />
          </g>
          <g
             transform="translate(-3.649679,5.979292)"
             id="ehh46vy8odcj36_to"
             style="fill:#000027;fill-opacity:1">
            <path
               stroke-width="1"
               stroke="none"
               fill="#000000"
               d="m 66.026582,102.33223 h -1.253164 c -2.164557,0 -3.873418,-1.98529 -3.873418,-4.5 v 0 c 0,-2.514705 1.708861,-4.5 3.873418,-4.5 h 1.253164 c 2.164557,0 3.873418,1.985295 3.873418,4.5 v 0 c 0,2.51471 -1.708861,4.5 -3.873418,4.5 z"
               id="ehh46vy8odcj36"
               style="fill:#6e8c89;fill-opacity:1" />
          </g>
          <path
             stroke-width="1"
             stroke="none"
             fill="#000000"
             d="m 49.9,52.3 c 0,0 -11.5,-8.7 -9.2,-26.5 0,0 -17.1,12.1 -3,39.4 z"
             id="ehh46vy8odcj37"
             style="fill:#6e8c89;fill-opacity:1" />
          <path
             stroke-width="1"
             stroke="none"
             fill="#000000"
             d="m 55.2,39.3 c 0,0 -7,-12.4 2.4,-27.1 0,0 -18.5,3.3 -16.8,33.1 z"
             id="ehh46vy8odcj38"
             style="fill:#6e8c89;fill-opacity:1" />
          <g
             id="ehh46vy8odcj39"
             style="fill:#000027;fill-opacity:1">
            <path
               stroke-width="1"
               stroke="none"
               fill="#000000"
               d="m 43.5,127.6 c -1,8.3 0.5,16.9 4.4,24.4 0,-1.8 0,-3.5 0,-5.3 2.2,5.8 5.3,11.2 9,16.1 -0.2,-2.4 -0.3,-4.9 -0.5,-7.3 1.9,4.9 4.9,9.3 8.8,12.9 -1.3,-2.6 -1.8,-5.7 -1.2,-8.6 6.4,7.1 15.4,11.8 25,12.9 -1.6,-1.7 -3.3,-3.4 -4.9,-5.1 7.6,0.9 15.2,1.8 22.8,2.8 -1.5,-1.2 -2.9,-2.3 -4.4,-3.5 3.5,-0.4 7.2,0.5 10.1,2.5 0.6,-2.7 0.8,-5.4 0.7,-8.2 3,1.6 5.3,4.5 6.3,7.8 1.8,-5.2 3.1,-10.6 3.9,-16.1 2.3,2.7 3.5,6.3 3.3,9.8 2.9,-8.7 4.1,-18 3.5,-27.2 -4.5,6.4 -9.9,12.3 -16.4,16.7 -6.5,4.4 -14.2,7.2 -22,7.4 -9.5,0.3 -21.3,0.3 -29.2,-4.8 C 54.8,149.7 50.4,139.6 43.6,133"
               id="ehh46vy8odcj40"
               style="fill:#6e8c89;fill-opacity:1" />
          </g>
        </g>
      </g>
    </g>
    <g
       style="fill:#6e8c89;fill-opacity:1"
       id="ehh46vy8odcj41">
      <g
         style="fill:#6e8c89;fill-opacity:1"
         id="ehh46vy8odcj42">
        <path
           style="fill:#6e8c89;fill-opacity:1"
           stroke-width="1"
           stroke="none"
           fill="rgb(0,196,125)"
           d="M188.200000,23.800000C193,23.800000,194.400000,25.300000,194.400000,30L194.400000,31C194.400000,35.800000,192.900000,37.200000,188.200000,37.200000L181.900000,37.200000C177.100000,37.200000,175.700000,35.700000,175.700000,31L175.700000,30.100000C175.700000,25.300000,177.200000,23.900000,181.900000,23.900000L188.200000,23.900000Z"
           id="ehh46vy8odcj43" />
        <path
           style="fill:#6e8c89;fill-opacity:1"
           stroke-width="1"
           stroke="none"
           fill="rgb(0,0,0)"
           d="M190.700000,40.500000C193.200000,40.500000,193.900000,41.400000,193.900000,43.700000L193.900000,74.200000C193.900000,76.600000,193.200000,77.400000,190.700000,77.400000L179.300000,77.400000C176.800000,77.400000,176.100000,76.500000,176.100000,74.200000L176.100000,43.700000C176.100000,41.300000,176.800000,40.500000,179.300000,40.500000L190.700000,40.500000Z"
           id="ehh46vy8odcj44" />
        <path
           style="fill:#6e8c89;fill-opacity:1"
           stroke-width="1"
           stroke="none"
           fill="rgb(0,0,0)"
           d="M198.300000,52.500000C198.300000,40.800000,205.200000,34,219.100000,34C229.100000,34,235.300000,38.700000,237.800000,45.800000C238.700000,48.300000,238.100000,49.400000,235.600000,50.300000L225.800000,53.500000C223.200000,54.400000,222.200000,53.800000,221.200000,51.300000C220.300000,49.100000,219.600000,48.600000,218.200000,48.600000C216.700000,48.600000,216,49.600000,216,51.500000L216,61.100000C216,63,216.700000,63.900000,218.200000,63.900000C219.700000,63.900000,220.300000,63.600000,221.200000,61.400000C222.200000,58.900000,223.200000,58.400000,225.800000,59.300000L235.900000,62.300000C238.300000,63,239.100000,64.600000,238.100000,67C234.900000,74.700000,228.200000,78.600000,218.100000,78.600000C204.600000,78.600000,198.100000,71.900000,198.100000,60L198.100000,52.500000Z"
           id="ehh46vy8odcj45" />
        <path
           style="fill:#6e8c89;fill-opacity:1"
           stroke-width="1"
           stroke="none"
           fill="rgb(0,0,0)"
           d="M240.900000,52.400000C240.900000,40.800000,248.400000,34,261.700000,34C275.300000,34,282.600000,40.800000,282.600000,52.400000L282.600000,60.200000C282.600000,71.800000,275.300000,78.600000,261.700000,78.600000C248.300000,78.600000,240.900000,71.800000,240.900000,60.200000L240.900000,52.400000ZM264.900000,51.700000C264.900000,49.900000,263.800000,49,261.700000,49C259.700000,49,258.600000,49.900000,258.600000,51.700000L258.600000,61C258.600000,62.700000,259.700000,63.600000,261.700000,63.600000C263.800000,63.600000,264.900000,62.700000,264.900000,61L264.900000,51.700000Z"
           id="ehh46vy8odcj46" />
        <path
           style="fill:#6e8c89;fill-opacity:1"
           stroke-width="1"
           stroke="none"
           fill="rgb(0,0,0)"
           d="M308.300000,34C321,34,327.300000,40.500000,327.300000,52.200000L327.300000,74.200000C327.300000,76.600000,326.600000,77.400000,324.100000,77.400000L312.700000,77.400000C310.200000,77.400000,309.500000,76.500000,309.500000,74.200000L309.500000,53C309.500000,50.700000,308.800000,50,306.600000,50C305.900000,50,305.400000,50,305.100000,50.100000C304.900000,50.200000,304.900000,50.300000,304.900000,50.400000L304.900000,74.200000C304.900000,76.600000,304.200000,77.400000,301.700000,77.400000L290.300000,77.400000C287.800000,77.400000,287.100000,76.500000,287.100000,74.200000L287.100000,42.200000C287.100000,39.300000,287.700000,38.200000,290.600000,37.200000C295.600000,35.100000,301.600000,34,308.300000,34Z"
           id="ehh46vy8odcj47" />
      </g>
    </g>
    <g
       style="fill:#6e8c89;fill-opacity:1"
       id="ehh46vy8odcj48">
      <path
         style="fill:#6e8c89;fill-opacity:1"
         stroke-width="1"
         stroke="none"
         fill="rgb(0,196,125)"
         d="M215.800000,141.200000C216.600000,143.600000,215.800000,144.700000,213.300000,144.700000L202,144.700000C197.900000,144.700000,196.400000,143.600000,195.800000,141L194.700000,136.900000L179.500000,136.900000L178.400000,141C177.700000,143.700000,176.400000,144.700000,172.600000,144.700000L161.200000,144.700000C158.700000,144.700000,158,143.600000,158.900000,141.200000L176.900000,90C177.600000,87.600000,178.700000,87.100000,181.300000,87.100000L193.300000,87.100000C195.800000,87.100000,196.900000,87.700000,197.700000,89.900000L215.800000,141.200000ZM188.900000,115.600000C188,112.600000,187.500000,108.300000,187.400000,106.100000L187.300000,104.400000L186.500000,104.400000C186.600000,108.400000,186.100000,112,185.200000,115.500000L183.400000,122.100000L190.600000,122.100000L188.900000,115.600000Z"
         id="ehh46vy8odcj49" />
      <path
         style="fill:#6e8c89;fill-opacity:1"
         stroke-width="1"
         stroke="none"
         fill="rgb(0,196,125)"
         d="M245.200000,87.100000C258.500000,87.100000,267,94.800000,267,108.100000C267,121.300000,258.600000,128.800000,245.300000,128.800000L237.300000,128.800000L237.300000,141.100000C237.300000,143.800000,236.400000,144.700000,233.700000,144.700000L222,144.700000C219.300000,144.700000,218.400000,143.800000,218.400000,141.100000L218.400000,90.700000C218.400000,88,219.300000,87.100000,222,87.100000L245.200000,87.100000ZM242.900000,112.600000C249.100000,113.100000,249.100000,102.900000,242.900000,103.400000L237.300000,103.400000L237.300000,112.600000L242.900000,112.600000Z"
         id="ehh46vy8odcj50" />
      <path
         style="fill:#6e8c89;fill-opacity:1"
         stroke-width="1"
         stroke="none"
         fill="rgb(0,196,125)"
         d="M310.500000,87.100000C313.200000,87.100000,314.100000,88,314.100000,90.700000L314.100000,99.800000C314.100000,102.500000,313.200000,103.400000,310.500000,103.400000L290.400000,103.400000L290.400000,107.600000L306,107.600000C308.700000,107.600000,309.600000,108.500000,309.600000,111.200000L309.600000,120.300000C309.600000,123,308.700000,123.900000,306,123.900000L290.400000,123.900000L290.400000,128.500000L311,128.500000C313.700000,128.500000,314.600000,129.400000,314.600000,132.100000L314.600000,141.300000C314.600000,144,313.700000,144.900000,311,144.900000L275.100000,144.900000C272.400000,144.900000,271.500000,144,271.500000,141.300000L271.500000,90.700000C271.500000,88,272.400000,87.100000,275.100000,87.100000L310.500000,87.100000Z"
         id="ehh46vy8odcj51" />
    </g>
  </g>
  <g
     style="fill:#6e8c89;fill-opacity:1;opacity:1"
     id="ehh46vy8odcj52">
    <path
       style="fill:#6e8c89;fill-opacity:1"
       stroke-width="1"
       stroke="none"
       fill="rgb(76,76,76)"
       d="M160,158.700000C164,158.700000,165.400000,160.700000,165.400000,164L165.400000,170.900000C165.400000,171.800000,165.200000,172.100000,164.500000,172.400000C163.400000,172.800000,161.900000,173.100000,160,173.100000C157.800000,173.100000,156.300000,172.800000,155.500000,172.100000C154.700000,171.400000,154.300000,170.400000,154.300000,168.900000C154.300000,165.800000,155.900000,164.800000,160.200000,164.800000C161.100000,164.800000,162.100000,164.900000,163.200000,165L163.200000,164C163.200000,162,162.400000,160.900000,160.100000,160.900000C158.600000,160.900000,157.500000,161.400000,156.800000,162.500000C156.500000,162.900000,156.400000,163,155.900000,162.800000L155.100000,162.400000C154.700000,162.200000,154.500000,161.900000,154.800000,161.500000C155.600000,159.600000,157.400000,158.700000,160,158.700000ZM163.100000,166.800000C161.700000,166.700000,160.600000,166.600000,159.800000,166.600000C157.400000,166.600000,156.600000,167.300000,156.600000,168.800000C156.600000,170.300000,157.300000,171,159.800000,171C161.100000,171,162.100000,170.900000,162.700000,170.700000C163,170.600000,163.100000,170.400000,163.100000,170.100000L163.100000,166.800000Z"
       id="ehh46vy8odcj53" />
    <path
       style="fill:#6e8c89;fill-opacity:1"
       stroke-width="1"
       stroke="none"
       fill="rgb(76,76,76)"
       d="M174.500000,158.700000C178.100000,158.700000,179.800000,160.400000,179.800000,163.900000L179.800000,172C179.800000,172.500000,179.600000,172.600000,179.200000,172.600000L178.100000,172.600000C177.700000,172.600000,177.500000,172.500000,177.500000,172L177.500000,163.900000C177.500000,161.800000,176.400000,160.800000,174.200000,160.800000C173.100000,160.800000,172.100000,161,171.100000,161.300000C170.900000,161.400000,170.800000,161.500000,170.800000,161.800000L170.800000,172C170.800000,172.500000,170.700000,172.600000,170.200000,172.600000L169.100000,172.600000C168.700000,172.600000,168.500000,172.400000,168.500000,172L168.500000,161C168.500000,160.200000,168.700000,159.900000,169.500000,159.500000C170.900000,158.900000,172.600000,158.700000,174.500000,158.700000Z"
       id="ehh46vy8odcj54" />
    <path
       style="fill:#6e8c89;fill-opacity:1"
       stroke-width="1"
       stroke="none"
       fill="rgb(58,58,58)"
       d="M194.100000,158.600000C197.900000,158.600000,199.700000,160.400000,199.700000,164L199.700000,170.800000C199.700000,171.700000,199.500000,172,198.800000,172.300000C197.700000,172.700000,196.200000,173,194.100000,173C191.900000,173,190.300000,172.700000,189.500000,171.900000C188.700000,171.200000,188.200000,170.100000,188.200000,168.700000C188.200000,165.600000,189.900000,164.500000,194.200000,164.500000C194.400000,164.500000,195.200000,164.600000,196.700000,164.600000L196.700000,163.900000C196.700000,162.200000,196,161.300000,194.100000,161.300000C192.800000,161.300000,191.900000,161.700000,191.300000,162.600000C190.900000,163.200000,190.800000,163.200000,190.200000,163L189.100000,162.600000C188.500000,162.300000,188.400000,161.900000,188.700000,161.400000C189.600000,159.500000,191.400000,158.600000,194.100000,158.600000ZM196.700000,167.200000C194.900000,167.100000,193.900000,167.100000,193.800000,167.100000C191.900000,167.100000,191.300000,167.700000,191.300000,168.800000C191.300000,170,191.900000,170.600000,193.800000,170.600000C194.900000,170.600000,195.800000,170.500000,196.400000,170.400000C196.600000,170.300000,196.700000,170.200000,196.700000,170L196.700000,167.200000Z"
       id="ehh46vy8odcj55" />
    <path
       style="fill:#6e8c89;fill-opacity:1"
       stroke-width="1"
       stroke="none"
       fill="rgb(58,58,58)"
       d="M209.300000,158.600000C209.900000,158.600000,210.100000,158.800000,210.100000,159.400000L210.100000,160.600000C210.100000,161.200000,209.900000,161.400000,209.300000,161.400000L208.400000,161.400000C207.400000,161.400000,206.600000,161.500000,205.900000,161.700000C205.700000,161.700000,205.600000,161.800000,205.600000,162L205.600000,171.800000C205.600000,172.400000,205.400000,172.600000,204.800000,172.600000L203.400000,172.600000C202.800000,172.600000,202.600000,172.400000,202.600000,171.800000L202.600000,160.900000C202.600000,160.100000,202.800000,159.700000,203.600000,159.400000C204.900000,158.900000,206.500000,158.700000,208.500000,158.600000L209.300000,158.600000Z"
       id="ehh46vy8odcj56" />
    <path
       style="fill:#6e8c89;fill-opacity:1"
       stroke-width="1"
       stroke="none"
       fill="rgb(58,58,58)"
       d="M214,153.100000C214.600000,153.100000,214.800000,153.300000,214.800000,153.900000L214.800000,159C216.100000,158.700000,217.100000,158.600000,218,158.600000C221.700000,158.600000,223.500000,160.400000,223.500000,163.900000L223.500000,167.500000C223.500000,171.200000,221.500000,173.100000,217.600000,173.100000C215.700000,173.100000,214.200000,172.800000,212.800000,172.300000C212,171.900000,211.800000,171.700000,211.800000,170.900000L211.800000,154C211.800000,153.400000,212,153.200000,212.600000,153.200000L214,153.200000ZM220.400000,164C220.400000,162.300000,219.400000,161.400000,217.500000,161.400000C216.600000,161.400000,215.700000,161.600000,214.800000,161.900000L214.800000,169.700000C214.800000,169.800000,214.900000,169.900000,215,170C215.600000,170.200000,216.300000,170.300000,217.300000,170.300000C219.400000,170.300000,220.400000,169.400000,220.400000,167.400000L220.400000,164Z"
       id="ehh46vy8odcj57" />
    <path
       style="fill:#6e8c89;fill-opacity:1"
       stroke-width="1"
       stroke="none"
       fill="rgb(58,58,58)"
       d="M233.300000,153.100000C233.900000,153.100000,234.100000,153.300000,234.100000,153.900000L234.100000,155.100000C234.100000,155.700000,233.900000,155.900000,233.300000,155.900000C231.100000,155.900000,230.300000,156.600000,230.300000,158.600000L230.300000,158.900000L233.300000,158.900000C233.900000,158.900000,234.100000,159.100000,234.100000,159.700000L234.100000,160.900000C234.100000,161.500000,233.900000,161.700000,233.300000,161.700000L230.300000,161.700000L230.300000,171.700000C230.300000,172.300000,230.100000,172.500000,229.500000,172.500000L228.100000,172.500000C227.500000,172.500000,227.300000,172.300000,227.300000,171.700000L227.300000,161.700000L225.700000,161.700000C225.100000,161.700000,224.900000,161.500000,224.900000,160.900000L224.900000,159.700000C224.900000,159.100000,225.100000,158.900000,225.700000,158.900000L227.300000,158.900000L227.300000,158.600000C227.300000,154.900000,229.200000,153.100000,233.100000,153L233.300000,153Z"
       id="ehh46vy8odcj58" />
    <path
       style="fill:#6e8c89;fill-opacity:1"
       stroke-width="1"
       stroke="none"
       fill="rgb(58,58,58)"
       d="M235.200000,163.900000C235.200000,160.600000,237.400000,158.600000,241.300000,158.600000C245.200000,158.600000,247.400000,160.600000,247.400000,163.900000L247.400000,167.800000C247.400000,171.100000,245.200000,173.100000,241.300000,173.100000C237.400000,173.100000,235.200000,171.100000,235.200000,167.800000L235.200000,163.900000ZM244.300000,163.900000C244.300000,162.300000,243.200000,161.400000,241.300000,161.400000C239.400000,161.400000,238.300000,162.300000,238.300000,163.900000L238.300000,167.800000C238.300000,169.400000,239.400000,170.300000,241.300000,170.300000C243.200000,170.300000,244.300000,169.400000,244.300000,167.800000L244.300000,163.900000Z"
       id="ehh46vy8odcj59" />
    <path
       style="fill:#6e8c89;fill-opacity:1"
       stroke-width="1"
       stroke="none"
       fill="rgb(58,58,58)"
       d="M256.100000,158.600000C259.800000,158.600000,261.600000,160.500000,261.600000,163.900000L261.600000,171.800000C261.600000,172.400000,261.400000,172.600000,260.800000,172.600000L259.400000,172.600000C258.800000,172.600000,258.600000,172.400000,258.600000,171.800000L258.600000,164C258.600000,162.300000,257.700000,161.400000,255.700000,161.400000C254.900000,161.400000,254,161.500000,253.200000,161.700000C253.100000,161.800000,253,161.800000,253,162L253,171.800000C253,172.400000,252.800000,172.600000,252.200000,172.600000L250.800000,172.600000C250.200000,172.600000,250,172.400000,250,171.800000L250,161C250,160.200000,250.200000,159.800000,251,159.500000C252.400000,158.900000,254.100000,158.600000,256.100000,158.600000Z"
       id="ehh46vy8odcj60" />
    <path
       style="fill:#6e8c89;fill-opacity:1"
       stroke-width="1"
       stroke="none"
       fill="rgb(58,58,58)"
       d="M267.900000,155.800000C268.500000,155.800000,268.700000,156,268.700000,156.600000L268.700000,159L271.700000,159C272.300000,159,272.500000,159.200000,272.500000,159.800000L272.500000,161C272.500000,161.600000,272.300000,161.800000,271.700000,161.800000L268.700000,161.800000L268.700000,167.100000C268.700000,168.300000,268.900000,169.200000,269.300000,169.500000C269.700000,169.900000,270.500000,170.100000,271.600000,170.100000C272.200000,170.100000,272.400000,170.300000,272.400000,170.900000L272.400000,172.100000C272.400000,172.700000,272.200000,172.900000,271.600000,172.900000C269.400000,173,267.800000,172.600000,266.900000,171.700000C266,170.900000,265.500000,169.300000,265.500000,167.100000L265.500000,161.700000L263.700000,161.700000C263.100000,161.700000,262.900000,161.500000,262.900000,160.900000L262.900000,159.700000C262.900000,159.100000,263.100000,158.900000,263.700000,158.900000L265.500000,158.900000L265.500000,156.500000C265.500000,155.900000,265.700000,155.700000,266.300000,155.700000L267.900000,155.700000Z"
       id="ehh46vy8odcj61" />
    <path
       style="fill:#6e8c89;fill-opacity:1"
       stroke-width="1"
       stroke="none"
       fill="rgb(58,58,58)"
       d="M279.800000,158.600000C282.600000,158.600000,284.500000,159.500000,285.400000,161.400000C285.700000,161.900000,285.500000,162.300000,285,162.600000L283.800000,163.100000C283.200000,163.300000,283,163.300000,282.700000,162.700000C282.200000,161.800000,281.300000,161.300000,279.900000,161.300000C278.200000,161.300000,277.400000,161.800000,277.400000,162.700000C277.400000,163.900000,278.200000,164.100000,280.500000,164.300000C284.100000,164.600000,285.900000,165.600000,285.900000,168.500000C285.900000,171.200000,283.900000,172.900000,280.200000,172.900000C277.100000,172.900000,275.100000,171.800000,274.300000,169.700000C274.100000,169.100000,274.300000,168.800000,274.800000,168.600000L276,168.200000C276.500000,168,276.800000,168.100000,277.100000,168.700000C277.500000,169.700000,278.500000,170.100000,280.100000,170.100000C282,170.100000,282.900000,169.600000,282.900000,168.500000C282.900000,167.300000,282.100000,167.100000,279.700000,166.800000C278.500000,166.700000,277.800000,166.600000,276.700000,166.200000C276.200000,166,275.800000,165.800000,275.500000,165.500000C274.900000,164.900000,274.400000,163.900000,274.400000,162.600000C274.400000,160.200000,276.300000,158.600000,279.800000,158.600000Z"
       id="ehh46vy8odcj62" />
    <path
       style="fill:#6e8c89;fill-opacity:1"
       stroke-width="1"
       stroke="none"
       fill="rgb(76,76,76)"
       d="M300.400000,153.500000C304,153.500000,306,154.800000,307.300000,157.500000C307.500000,157.900000,307.400000,158.200000,306.900000,158.400000L305.800000,158.900000C305.300000,159.100000,305.100000,159.100000,304.900000,158.600000C304,156.800000,302.700000,155.900000,300.400000,155.900000C297.500000,155.900000,296,156.900000,296,158.900000C296,160.300000,296.800000,161,298.200000,161.400000C299.200000,161.700000,299.800000,161.800000,301.100000,161.900000C302.600000,162.100000,303.500000,162.200000,304.800000,162.700000C305.500000,163,306,163.300000,306.400000,163.600000C307.200000,164.300000,307.800000,165.500000,307.800000,167.200000C307.800000,170.800000,305.200000,172.900000,300.500000,172.900000C296.600000,172.900000,294.500000,171.500000,293.300000,168.400000C293.100000,167.900000,293.200000,167.700000,293.700000,167.500000L294.800000,167.100000C295.200000,166.900000,295.500000,167,295.700000,167.500000C296.600000,169.500000,298.100000,170.500000,300.500000,170.500000C303.700000,170.500000,305.200000,169.400000,305.200000,167.200000C305.200000,166.100000,304.700000,165.400000,303.800000,165C302.800000,164.600000,302.100000,164.500000,300.600000,164.300000C299.200000,164.200000,298.600000,164.100000,297.400000,163.700000C296.800000,163.600000,296.300000,163.400000,295.900000,163.100000C294.700000,162.400000,293.500000,161.200000,293.600000,158.900000C293.400000,155.800000,296,153.500000,300.400000,153.500000Z"
       id="ehh46vy8odcj63" />
    <path
       style="fill:#6e8c89;fill-opacity:1"
       stroke-width="1"
       stroke="none"
       fill="rgb(76,76,76)"
       d="M309.800000,164.300000C309.800000,160.700000,311.900000,158.700000,315.700000,158.700000C319.600000,158.700000,321.600000,160.900000,321.600000,164.100000L321.600000,165.600000C321.600000,166.200000,321.300000,166.500000,320.600000,166.500000L312,166.500000L312,167.800000C312,169.800000,313.200000,171,315.500000,171C317.200000,171,318.400000,170.400000,319.200000,169.200000C319.500000,168.800000,319.800000,168.700000,320.200000,169L320.900000,169.400000C321.300000,169.600000,321.400000,170,321.100000,170.400000C320.100000,172.200000,318.200000,173.100000,315.400000,173.100000C311.500000,173.100000,309.600000,171,309.600000,167.600000L309.600000,164.300000ZM319.300000,164C319.300000,161.900000,318,160.700000,315.700000,160.700000C313.400000,160.700000,312.100000,161.900000,312.100000,164L312.100000,164.800000L319.300000,164.800000L319.300000,164Z"
       id="ehh46vy8odcj64" />
    <path
       style="fill:#6e8c89;fill-opacity:1"
       stroke-width="1"
       stroke="none"
       fill="rgb(76,76,76)"
       d="M330.900000,158.700000C331.400000,158.700000,331.500000,158.900000,331.500000,159.300000L331.500000,160.200000C331.500000,160.600000,331.400000,160.800000,330.900000,160.800000L330,160.800000C328.900000,160.800000,327.900000,161,327,161.200000C326.800000,161.300000,326.600000,161.500000,326.600000,161.700000L326.600000,172C326.600000,172.500000,326.500000,172.600000,326,172.600000L324.900000,172.600000C324.500000,172.600000,324.300000,172.400000,324.300000,172L324.300000,160.900000C324.300000,160.100000,324.500000,159.800000,325.300000,159.400000C326.600000,158.900000,328.200000,158.600000,330.100000,158.600000L330.900000,158.600000Z"
       id="ehh46vy8odcj65" />
    <path
       style="fill:#6e8c89;fill-opacity:1"
       stroke-width="1"
       stroke="none"
       fill="rgb(76,76,76)"
       d="M344.300000,159C344.900000,159,345,159.100000,344.800000,159.700000L339.700000,172C339.500000,172.400000,339.300000,172.600000,338.800000,172.600000L338.100000,172.600000C337.700000,172.600000,337.400000,172.400000,337.200000,172L332.100000,159.700000C331.900000,159.100000,332,159,332.600000,159L333.400000,159C334.100000,159,334.300000,159.100000,334.500000,159.600000L337.600000,167.200000C337.900000,168.200000,338.300000,169.600000,338.300000,169.700000L338.400000,169.700000C338.400000,169.600000,338.700000,168.100000,339.100000,167.200000L342.200000,159.600000C342.400000,159.100000,342.600000,159,343.300000,159L344.300000,159Z"
       id="ehh46vy8odcj66" />
    <path
       style="fill:#6e8c89;fill-opacity:1"
       stroke-width="1"
       stroke="none"
       fill="rgb(76,76,76)"
       d="M348.100000,154.100000C349.100000,154.100000,349.400000,154.400000,349.400000,155.400000L349.400000,155.600000C349.400000,156.500000,349.100000,156.900000,348.100000,156.900000L347.900000,156.900000C347,156.900000,346.600000,156.600000,346.600000,155.600000L346.600000,155.400000C346.600000,154.500000,346.900000,154.100000,347.900000,154.100000L348.100000,154.100000ZM348.500000,159C349,159,349.100000,159.100000,349.100000,159.600000L349.100000,172C349.100000,172.500000,349,172.600000,348.500000,172.600000L347.400000,172.600000C346.900000,172.600000,346.800000,172.500000,346.800000,172L346.800000,159.700000C346.800000,159.200000,346.900000,159.100000,347.400000,159.100000L348.500000,159.100000Z"
       id="ehh46vy8odcj67" />
    <path
       style="fill:#6e8c89;fill-opacity:1"
       stroke-width="1"
       stroke="none"
       fill="rgb(76,76,76)"
       d="M352,163.900000C352,160.600000,354,158.600000,357.900000,158.600000C360.900000,158.600000,362.700000,159.800000,363.500000,162.100000C363.700000,162.500000,363.500000,162.800000,363.100000,163L362.200000,163.300000C361.800000,163.500000,361.500000,163.400000,361.300000,162.900000C360.800000,161.400000,359.700000,160.700000,357.900000,160.700000C355.700000,160.700000,354.500000,161.800000,354.500000,163.800000L354.500000,167.800000C354.500000,169.800000,355.700000,170.900000,357.900000,170.900000C359.700000,170.900000,360.800000,170.100000,361.300000,168.600000C361.500000,168.100000,361.700000,168,362.200000,168.200000L363.100000,168.500000C363.500000,168.700000,363.700000,169,363.500000,169.400000C362.600000,171.800000,360.700000,173,357.700000,173C353.900000,173,352,171.100000,352,167.700000L352,163.900000Z"
       id="ehh46vy8odcj68" />
    <path
       style="fill:#6e8c89;fill-opacity:1"
       stroke-width="1"
       stroke="none"
       fill="rgb(76,76,76)"
       d="M365.500000,164.300000C365.500000,160.700000,367.600000,158.700000,371.400000,158.700000C375.300000,158.700000,377.300000,160.900000,377.300000,164.100000L377.300000,165.600000C377.300000,166.200000,377,166.500000,376.300000,166.500000L367.700000,166.500000L367.700000,167.800000C367.700000,169.800000,368.900000,171,371.200000,171C372.900000,171,374.100000,170.400000,374.900000,169.200000C375.200000,168.800000,375.500000,168.700000,375.900000,169L376.600000,169.400000C377,169.600000,377.100000,170,376.800000,170.400000C375.800000,172.200000,373.900000,173.100000,371.100000,173.100000C367.200000,173.100000,365.300000,171,365.300000,167.600000L365.300000,164.300000ZM375.100000,164C375.100000,161.900000,373.800000,160.700000,371.500000,160.700000C369.200000,160.700000,367.900000,161.900000,367.900000,164L367.900000,164.800000L375.100000,164.800000L375.100000,164Z"
       id="ehh46vy8odcj69" />
  </g>
</svg>
