<?xml version="1.0" encoding="UTF-8" standalone="no"?>
<svg
   xmlns:dc="http://purl.org/dc/elements/1.1/"
   xmlns:cc="http://creativecommons.org/ns#"
   xmlns:rdf="http://www.w3.org/1999/02/22-rdf-syntax-ns#"
   xmlns:svg="http://www.w3.org/2000/svg"
   xmlns="http://www.w3.org/2000/svg"
   xmlns:xlink="http://www.w3.org/1999/xlink"
   xmlns:sodipodi="http://sodipodi.sourceforge.net/DTD/sodipodi-0.dtd"
   xmlns:inkscape="http://www.inkscape.org/namespaces/inkscape"
   inkscape:version="1.0 (4035a4fb49, 2020-05-01)"
   sodipodi:docname="credit3-inkscape.svg"
   id="svg207"
   version="1.1"
   viewBox="0 0 128 128"
   enable-background="new 0 0 128 128">
  <metadata
     id="metadata213">
    <rdf:RDF>
      <cc:Work
         rdf:about="">
        <dc:format>image/svg+xml</dc:format>
        <dc:type
           rdf:resource="http://purl.org/dc/dcmitype/StillImage" />
        <dc:title></dc:title>
      </cc:Work>
    </rdf:RDF>
  </metadata>
  <defs
     id="defs211" />
  <sodipodi:namedview
     inkscape:current-layer="svg207"
     inkscape:window-maximized="1"
     inkscape:window-y="-8"
     inkscape:window-x="-8"
     inkscape:cy="61.315832"
     inkscape:cx="64"
     inkscape:zoom="3.3747693"
     showgrid="false"
     id="namedview209"
     inkscape:window-height="705"
     inkscape:window-width="1366"
     inkscape:pageshadow="2"
     inkscape:pageopacity="0"
     guidetolerance="10"
     gridtolerance="10"
     objecttolerance="10"
     borderopacity="1"
     bordercolor="#666666"
     pagecolor="#ffffff" />
  <path
     style="fill:#000027;fill-opacity:1"
     id="path2"
     d="M13.5 120.7c1-.1 1.6-.6 1.6-1.4v-10.5c0-1.1 0-1.3-1.6-1.6v-.6h1.7c2 0 2.5-.1 2.5-.1l.1.1s-.7.8-.7 2.7v10c0 .6-.1 1.1-.1 1.1l2.1.2-.1.6-5.4.1v-.6zM20.8 120.7c1-.1 1.6-.6 1.6-1.4v-9.9c0-1.5-.4-2-1.8-2.2v-.6h.7c1.1 0 2.2-.1 2.2-.1s.3.5.8 1.1l8 9.2.9 1.2v-9.2c0-1 0-1.5-1.8-1.7v-.6h4.2l.1.3s-1.5.4-1.5 2.2v12.2h-.6l-9.4-11c-.3-.3-.6-.7-.8-1.1v10c0 .7-.1 1.2-.1 1.2l2 .1-.1.6-4.3.1v-.4zM37.7 120.7c1-.1 1.6-.6 1.6-1.4v-10.5c0-1.1 0-1.3-1.6-1.6v-.6h1.7c2 0 2.5-.1 2.5-.1l.1.1s-.7.8-.7 2.7v3.9h.4s.4-.2.7-.6l4.3-4.3c.4-.4.4-1-.6-1.1v-.6h4.1l.1.3s-1.2.3-2.8 1.9l-4.2 4.1v.2l5.3 6.1c1 1.1 1.2 1.2 1.9 1.3h.2l-.1.7h-3.2l-.1-.1s-.2-.7-1.7-2.3l-4.1-4.8h-.4v5.2c0 .6-.1 1.1-.1 1.1l2 .2-.1.6-5.3.1v-.5zM52.1 117.4h.7c0 2.7 1.7 3.4 3.2 3.4 1.4 0 2.8-.6 2.8-2.3 0-3.8-6.9-3.8-6.9-8.2 0-2.2 1.6-3.8 4.9-3.8 1.6 0 3.1.4 3.6.4l-.7 3.4h-.7c.2-1.6-.6-3-2.5-3-1.5 0-2.7.7-2.7 2.3 0 3.9 6.9 3.5 6.9 8.2 0 2.6-2.3 3.9-4.9 3.9-1.9 0-4.2-.7-4.2-2.3 0-.4.1-.7.5-2zM70.8 106.4c1.6 0 3.6.4 4.8.5l-.7 3.3h-.7c0-2.3-1.9-3-3.7-3-3.4 0-5.6 2.7-5.6 6.3 0 4 2.8 6.6 6.4 6.6 2.8 0 4.4-1.6 4.4-1.6l.3.5s-1.7 2.6-5.5 2.6c-3.9 0-7.7-2.7-7.7-7.4 0-4.5 3.3-7.8 8-7.8zM76.4 120.7c.9-.1 1.3-.5 1.5-1l5.2-13 .9-.2 4.9 12.5c.6 1.5 1 1.6 1.7 1.7l-.1.6h-.9c-.8 0-3.3.1-3.3.1v-.7c.6 0 1.2-.2.9-.9l-1.3-3.5h-5.3l-.3.2-1.5 4 1.9.3-.1.6h-4.1v-.7zm6.7-11.7l-2.4 6.4h4.8l-1.9-5c-.2-.5-.4-1.1-.5-1.4zM91.6 120.7c1-.1 1.6-.6 1.6-1.4v-10.5c0-1.1-.1-1.3-1.8-1.6v-.6h5.5c2.5 0 5.4.8 5.4 4 0 3.5-3.3 4.7-5.7 4.5v-.6c2.6-.1 3.5-1.7 3.5-3.4 0-2.6-2.1-3.7-4.4-3.7h-.3l-.2.2v11.6c0 .6-.1 1.1-.1 1.1l2.1.2-.1.6-5.4.1v-.5zM104 120.7c1-.1 1.6-.6 1.6-1.4v-10.5c0-1.1-.1-1.3-1.8-1.6v-.6h9.1c.9 0 1.6-.1 1.6-.1l-.7 3.7h-.8c.1-2.3-.6-2.7-2.4-2.7h-2.9l-.2.2v5.7h4.1l.2-1.3.8-.1v3.9h-1v-1.6h-3.8l-.2.2v4.7c0 .7-.1 1.2-.1 1.2h3.5c1.9 0 2.2-.4 3.3-2.7h.7l-.8 3.6h-6.9c-1.1 0-3.2.1-3.2.1v-.7z" />
  <g
     style="fill:#000027;fill-opacity:1"
     id="g205"
     transform="matrix(.994 0 0 .994 .389 -1.445)"
     enable-background="new">
    <g
       style="fill:#000027;fill-opacity:1"
       id="g8"
       opacity=".783">
      <path
         style="fill:#000027;fill-opacity:1"
         id="path4"
         d="M55.1 8.288l-37.2 38.1c-14.1 14.1 9.1 12.9 17.5 18.2 3.9 2.5-12.5 5.8-9.1 9.1l22.8 9.7c3.2 3.3-6.6 6.9-3.3 10.2 3.2 3.3 10.7.2 12.1 7.8 1 5.6 13.9 2.8 19.7-2l-3-6.4c8.1-8.2 15.3-3.7 18.3-11.3 1.6-4.1-12.3-6.9-8.6-9.6 8.8-6.2 41.3-9.4 26.3-24.4l-38.5-39.4c-4.8-4.5-12.6-4.5-17 0zm42.6 73.4c0 1.9 14.7 3 13.9-.5-1.1-5.7-12.2-5.3-13.9.5zm-62.7 10c3.3 2.9 8.4-.6 10-4.7-3.2-4.2-15.2.3-10 4.7zm60.9-6c-4.2 3.8.7 7.8 4.8 5.1 1.1-.7-.1-4.2-4.8-5.1z" />
      <path
         style="fill:#000027;fill-opacity:1"
         id="path6"
         opacity=".576"
         enable-background="new"
         d="M55.1 9.188l-37.2 38.1c-14.1 14.1 9.1 12.9 17.5 18.2 3.9 2.5-12.5 5.8-9.1 9.1l22.8 9.7c3.2 3.3-6.6 6.9-3.3 10.2 3.2 3.3 10.7.2 12.1 7.8 1 5.6 13.9 2.8 19.7-2l-3-6.4c8.1-8.2 15.3-3.7 18.3-11.3 1.6-4.1-12.3-6.9-8.6-9.6 8.8-6.2 41.3-9.4 26.3-24.4l-38.5-39.4c-4.8-4.5-12.6-4.5-17 0zm42.6 73.4c0 1.9 14.7 3 13.9-.5-1.1-5.8-12.2-5.3-13.9.5zm-62.7 10c3.3 2.9 8.4-.6 10-4.7-3.2-4.3-15.2.3-10 4.7zm60.9-6.1c-4.2 3.8.7 7.8 4.8 5.1 1.1-.6-.1-4.2-4.8-5.1z" />
    </g>
    <path
       style="fill:#000027;fill-opacity:1"
       id="path10"
       d="M55.1 7.4l-37.2 38.1c-14.1 14.1 9.1 12.9 17.5 18.2 3.9 2.5-12.5 5.8-9.1 9.1l22.8 9.7c3.2 3.3-6.6 6.9-3.3 10.2 3.2 3.3 10.7.2 12.1 7.8 1 5.6 13.9 2.8 19.7-2l-3-6.4c8.1-8.2 15.3-3.7 18.3-11.3 1.6-4.1-12.3-6.9-8.6-9.6 8.8-6.2 41.3-9.4 26.3-24.4l-38.5-39.4c-4.8-4.5-12.6-4.5-17 0zm42.6 73.4c0 1.9 14.7 3 13.9-.5-1.1-5.7-12.2-5.3-13.9.5zm-62.7 10c3.3 2.9 8.4-.6 10-4.7-3.2-4.2-15.2.3-10 4.7zm60.9-6c-4.2 3.8.7 7.8 4.8 5.1 1.1-.7-.1-4.2-4.8-5.1z" />
    <path
       style="fill:#000027;fill-opacity:1"
       id="path12"
       d="M55.1 7.4l-37.2 38.1c-14.1 14.1 9.1 12.9 17.5 18.2 3.9 2.5-12.5 5.8-9.1 9.1l22.8 9.7c3.2 3.3-6.6 6.9-3.3 10.2 3.2 3.3 10.7.2 12.1 7.8 1 5.6 13.9 2.8 19.7-2l-3-6.4c8.1-8.2 15.3-3.7 18.3-11.3 1.6-4.1-12.3-6.9-8.6-9.6 8.8-6.2 41.3-9.4 26.3-24.4l-38.5-39.4c-4.8-4.5-12.6-4.5-17 0zm42.6 73.4c0 1.9 14.7 3 13.9-.5-1.1-5.7-12.2-5.3-13.9.5zm-62.7 10c3.3 2.9 8.4-.6 10-4.7-3.2-4.2-15.2.3-10 4.7zm60.9-6c-4.2 3.8.7 7.8 4.8 5.1 1.1-.7-.1-4.2-4.8-5.1z"
       fill="none" />
    <defs
       id="defs15">
      <path
         d="M55.2 7.9l-36.9 37.7c-13.9 13.9 9 12.8 17.3 18.1 3.8 2.5-12.3 5.7-9 9 3.3 3.3 19.4 6.3 22.7 9.5l-3.3 10.1c3.1 3.3 10.6.2 12 7.7 1 5.5 13.8 2.8 19.5-2 3.6-3-6.2-3-2.9-6.3 8-8.1 15.2-3.7 18.1-11.2 1.6-4-12.2-6.9-8.5-9.5 8.8-6.2 40.9-9.3 26.1-24.1l-38.3-39c-4.7-4.5-12.5-4.5-16.8 0zm-8.9 57.8c.8 0 27.5 3.6 17.2 6.3-3.9 1.1-21.9-6.3-17.2-6.3zm51.1 14.8c0 1.9 14.6 2.9 13.8-.4-1.2-5.7-12.2-5.3-13.8.4zm-62.1 10c3.3 2.9 8.3-.6 9.9-4.6-3.2-4.3-15.1.2-9.9 4.6zm60.3-6c-4.1 3.8.7 7.7 4.7 5.1 1.1-.8 0-4.2-4.7-5.1z"
         id="a" />
    </defs>
    <clipPath
       id="b">
      <use
         id="use17"
         xlink:href="#a"
         overflow="visible" />
    </clipPath>
    <g
       style="fill:#000027;fill-opacity:1"
       id="g27"
       transform="matrix(.991 0 0 .991 .605 .604)"
       clip-path="url(#b)">
      <linearGradient
         gradientUnits="userSpaceOnUse"
         gradientTransform="matrix(.985 0 0 -.985 6.128 -23.064)"
         y2="-74.414"
         y1="-56.37"
         x2="71.669"
         x1="91.626"
         id="c">
        <stop
           id="stop20"
           stop-color="#C0CDF9"
           offset="0" />
        <stop
           id="stop22"
           stop-opacity=".288"
           stop-color="#07092D"
           offset="1" />
      </linearGradient>
      <path
         style="fill:#000027;fill-opacity:1"
         id="path25"
         d="M55.2 7.9l-36.9 37.7c-13.9 13.9 9 12.8 17.3 18.1 3.8 2.5-12.3 5.7-9 9 3.3 3.3 19.4 6.3 22.7 9.5l-3.3 10.1c3.1 3.3 10.6.2 12 7.7 1 5.5 13.8 2.8 19.5-2 3.6-3-6.2-3-2.9-6.3 8-8.1 15.2-3.7 18.1-11.2 1.6-4-12.2-6.9-8.5-9.5 8.8-6.2 40.9-9.3 26.1-24.1l-38.3-39c-4.7-4.5-12.5-4.5-16.8 0zm-8.9 57.8c.8 0 27.5 3.6 17.2 6.3-3.9 1.1-21.9-6.3-17.2-6.3zm51.1 14.8c0 1.9 14.6 2.9 13.8-.4-1.2-5.7-12.2-5.3-13.8.4zm-62.1 10c3.3 2.9 8.3-.6 9.9-4.6-3.2-4.3-15.1.2-9.9 4.6zm60.3-6c-4.1 3.8.7 7.7 4.7 5.1 1.1-.8 0-4.2-4.7-5.1z"
         fill="url(#c)" />
    </g>
    <linearGradient
       gradientUnits="userSpaceOnUse"
       gradientTransform="matrix(1.003 0 0 -1.003 -.413 -21.676)"
       y2="-69.606"
       y1="-47.051"
       x2="60.967"
       x1="38.411"
       id="d">
      <stop
         id="stop29"
         stop-color="#fff"
         offset="0" />
      <stop
         id="stop31"
         stop-opacity="0"
         stop-color="#fff"
         offset="1" />
    </linearGradient>
    <path
       style="fill:#000027;fill-opacity:1"
       id="path34"
       opacity=".505"
       enable-background="new"
       d="M21.2 47.6c-10.1 10 7.6 7.2 21.3 12.6l28.2-49.6c-4.3-4.4-9.7-4-13.7 0l-35.8 37z"
       fill="url(#d)" />
    <linearGradient
       gradientUnits="userSpaceOnUse"
       gradientTransform="matrix(.994 0 0 -.994 2.709 -22.463)"
       y2="-71.177"
       y1="-44.11"
       x2="77.881"
       x1="50.814"
       id="e">
      <stop
         id="stop36"
         stop-color="#fff"
         offset="0" />
      <stop
         id="stop38"
         stop-opacity="0"
         stop-color="#fff"
         offset="1" />
    </linearGradient>
    <path
       style="fill:#000027;fill-opacity:1"
       id="path41"
       d="M69.9 10.1l14.7 15c1.4 1.4 1.4 4.2.5 5l-7.3-6-1.4 8.8-6-3.2-9.8 6.2-3.2-13.1-5.4 11.3-13.1-.1c-2.5 0-2.2-2.6.5-5.2 5.1-5.7 15.2-15.3 18.3-18.7 3.2-3.3 8.9-3.2 12.2 0z"
       fill="url(#e)" />
    <radialGradient
       gradientUnits="userSpaceOnUse"
       gradientTransform="matrix(.827 0 0 -.553 1.123 -104.537)"
       r="27.608"
       cy="-368.06"
       cx="55.343"
       id="f">
      <stop
         id="stop43"
         stop-color="#fff"
         offset="0" />
      <stop
         id="stop45"
         stop-opacity="0"
         stop-color="#fff"
         offset="1" />
    </radialGradient>
    <path
       style="fill:#000027;fill-opacity:1"
       id="path48"
       opacity=".217"
       enable-background="new"
       d="M49.7 80.9s1.6 2.4 1.4 3.6c-.3 2.3-5.2 3.4-4.1 5.4 1.1 2 4.9.9 8.1 2.9 3.2 2.1 2.3 6.3 4.7 7.3 4.5 2.1 16.4-3.6 15.8-3.4-.6.1-11.7 2.4-14.2.4-2.9-2.3-3.7-3.9-5.8-5.3-2-1.3-4.8-1.8-5.4-2.9-.6-1.1 1.3-2.4 1.4-4.4.1-1.2-1.9-3.6-1.9-3.6z"
       fill="url(#f)" />
    <g
       style="fill:#000027;fill-opacity:1"
       id="g57"
       opacity=".276"
       enable-background="new">
      <radialGradient
         gradientUnits="userSpaceOnUse"
         gradientTransform="matrix(1.055 0 0 -.706 -97.55 -123.665)"
         r="27.608"
         cy="-316.346"
         cx="148.42"
         id="g">
        <stop
           id="stop50"
           stop-color="#fff"
           offset="0" />
        <stop
           id="stop52"
           stop-opacity="0"
           stop-color="#fff"
           offset="1" />
      </radialGradient>
      <path
         style="fill:#000027;fill-opacity:1"
         id="path55"
         d="M49.7 80.9s1.6 2.4 1.4 3.6c-.3 2.3-5.2 3.4-4.1 5.4 1.1 2 4.9.9 8.1 2.9 3.2 2.1 2.3 6.3 4.7 7.3 4.5 2.1 16.4-3.6 15.8-3.4-19.8.1-16.1-5-23.7-8.4-1.1-.5-.5-1.8-.3-3.8.1-1.2-1.9-3.6-1.9-3.6z"
         fill="url(#g)" />
    </g>
    <radialGradient
       gradientUnits="userSpaceOnUse"
       gradientTransform="matrix(.526 0 0 -.223 130.969 -83.733)"
       r="30.901"
       cy="-663.625"
       cx="-66.136"
       id="h">
      <stop
         id="stop59"
         stop-color="#fff"
         offset="0" />
      <stop
         id="stop61"
         stop-opacity="0"
         stop-color="#fff"
         offset="1" />
    </radialGradient>
    <path
       style="fill:#000027;fill-opacity:1"
       id="path64"
       opacity=".453"
       enable-background="new"
       d="M83.2 70.5c17.7-6.5 23.4-7.4 29.3-13.3-6.7 5.8-21.1 8.8-32.7 13.9l3.4-.6z"
       fill="url(#h)" />
    <g
       style="fill:#000027;fill-opacity:1"
       id="g73"
       opacity=".512"
       enable-background="new">
      <radialGradient
         gradientUnits="userSpaceOnUse"
         gradientTransform="matrix(.526 0 0 -.223 130.969 -84.659)"
         r="30.901"
         cy="-676.361"
         cx="-59.555"
         id="i">
        <stop
           id="stop66"
           stop-color="#fff"
           offset="0" />
        <stop
           id="stop68"
           stop-opacity="0"
           stop-color="#fff"
           offset="1" />
      </radialGradient>
      <path
         style="fill:#000027;fill-opacity:1"
         id="path71"
         d="M83.2 69.7c29.2-10.3 24.3-10.3 29.3-13.3-9.3 3.6-26.6 3.9-32.7 13.9l3.4-.6z"
         fill="url(#i)" />
    </g>
    <linearGradient
       gradientUnits="userSpaceOnUse"
       gradientTransform="matrix(.526 0 0 -.526 130.306 -97.198)"
       y2="-334.893"
       y1="-329.198"
       x2="-48.099"
       x1="-48.211"
       id="j">
      <stop
         id="stop75"
         stop-color="#fff"
         offset="0" />
      <stop
         id="stop77"
         stop-opacity="0"
         stop-color="#fff"
         offset="1" />
    </linearGradient>
    <path
       style="fill:#000027;fill-opacity:1"
       id="path80"
       opacity=".286"
       enable-background="new"
       d="M108.8 77.9c0 .6-1.7 1.2-3.8 1.2-2.1 0-3.8-.5-3.8-1.2 0-.6 1.7-1.2 3.8-1.2 2.1.1 3.8.6 3.8 1.2z"
       fill="url(#j)" />
    <g
       style="fill:#000027;fill-opacity:1"
       id="g89"
       opacity=".621"
       enable-background="new">
      <linearGradient
         gradientUnits="userSpaceOnUse"
         gradientTransform="matrix(.709 0 0 -1.134 33.501 -139.476)"
         y2="-193.824"
         y1="-189.809"
         x2="100.816"
         x1="100.816"
         id="k">
        <stop
           id="stop82"
           stop-color="#fff"
           offset="0" />
        <stop
           id="stop84"
           stop-opacity="0"
           stop-color="#fff"
           offset="1" />
      </linearGradient>
      <path
         style="fill:#000027;fill-opacity:1"
         id="path87"
         d="M110.1 79.3c0 1.4-2.3 2.5-5.1 2.5s-5.1-1.1-5.1-2.5 2.3-2.5 5.1-2.5 5.1 1.1 5.1 2.5z"
         fill="url(#k)" />
    </g>
    <radialGradient
       gradientUnits="userSpaceOnUse"
       gradientTransform="matrix(.526 0 0 -.078 130.969 -61.714)"
       r="12.716"
       cy="-1837.368"
       cx="-49.825"
       id="l">
      <stop
         id="stop91"
         stop-color="#fff"
         offset="0" />
      <stop
         id="stop93"
         stop-opacity="0"
         stop-color="#fff"
         offset="1" />
    </radialGradient>
    <path
       style="fill:#000027;fill-opacity:1"
       id="path96"
       d="M98 80.7c1.8 1.7 11.8 2.5 13.5-.5-3.2 2.3-10.4 1.5-13.5.5z"
       fill="url(#l)" />
    <linearGradient
       gradientUnits="userSpaceOnUse"
       gradientTransform="matrix(.203 -.103 -.238 -.469 275.813 -28.596)"
       y2="-44.05"
       y1="-38.355"
       x2="-930.6"
       x1="-930.712"
       id="m">
      <stop
         id="stop98"
         stop-color="#fff"
         offset="0" />
      <stop
         id="stop100"
         stop-opacity="0"
         stop-color="#fff"
         offset="1" />
    </linearGradient>
    <path
       style="fill:#000027;fill-opacity:1"
       id="path103"
       opacity=".286"
       enable-background="new"
       d="M98 86.2c.4.7.1 1.6-.5 1.9-.7.3-1.5 0-1.9-.7-.4-.7-.1-1.6.5-1.9s1.6 0 1.9.7z"
       fill="url(#m)" />
    <g
       style="fill:#000027;fill-opacity:1"
       id="g112"
       opacity=".621"
       enable-background="new">
      <linearGradient
         gradientUnits="userSpaceOnUse"
         gradientTransform="matrix(.273 -.139 -.513 -1.011 218.865 -48.039)"
         y2="-58.859"
         y1="-54.844"
         x2="-554.563"
         x1="-554.563"
         id="n">
        <stop
           id="stop105"
           stop-color="#fff"
           offset="0" />
        <stop
           id="stop107"
           stop-opacity="0"
           stop-color="#fff"
           offset="1" />
      </linearGradient>
      <path
         style="fill:#000027;fill-opacity:1"
         id="path110"
         d="M98.8 86.6c.6 1.1.2 2.4-.8 2.9s-2.2 0-2.7-1.1c-.6-1.2-.3-2.4.7-2.9s2.2 0 2.8 1.1z"
         fill="url(#n)" />
    </g>
    <radialGradient
       gradientUnits="userSpaceOnUse"
       gradientTransform="matrix(.203 -.103 -.035 -.069 292.115 2.923)"
       r="12.716"
       cy="131.174"
       cx="-932.326"
       id="o">
      <stop
         id="stop114"
         stop-color="#fff"
         offset="0" />
      <stop
         id="stop116"
         stop-opacity="0"
         stop-color="#fff"
         offset="1" />
    </radialGradient>
    <path
       style="fill:#000027;fill-opacity:1"
       id="path119"
       d="M95.5 89.6c1.4 1.1 6.9 1.3 4.8-2 .6 2.6-3.1 2.3-4.8 2z"
       fill="url(#o)" />
    <radialGradient
       gradientUnits="userSpaceOnUse"
       gradientTransform="matrix(.526 0 0 -.214 130.969 -74.982)"
       r="20.526"
       cy="-702.254"
       cx="-175.404"
       id="p">
      <stop
         id="stop121"
         stop-opacity=".33"
         stop-color="#fff"
         offset="0" />
      <stop
         id="stop123"
         stop-opacity="0"
         stop-color="#fff"
         offset="1" />
    </radialGradient>
    <path
       style="fill:#000027;fill-opacity:1"
       id="path126"
       d="M28.3 72.5c0-.3 18.6 5.7 21.7 8.8-2.6-2.6-15.8-8.4-17.9-8.5-1.9 0-3.6-.1-3.8-.3z"
       fill="url(#p)" />
    <g
       style="fill:#000027;fill-opacity:1"
       id="g144"
       transform="matrix(.879 -.193 .234 .696 -20.21 36.726)">
      <linearGradient
         gradientUnits="userSpaceOnUse"
         gradientTransform="matrix(.463 .102 .123 -.366 118.863 -68.93)"
         y2="-429.281"
         y1="-423.586"
         x2="-46.72"
         x1="-46.833"
         id="q">
        <stop
           id="stop128"
           stop-color="#fff"
           offset="0" />
        <stop
           id="stop130"
           stop-opacity="0"
           stop-color="#fff"
           offset="1" />
      </linearGradient>
      <path
         style="fill:#000027;fill-opacity:1"
         id="path133"
         opacity=".286"
         enable-background="new"
         d="M48.9 83.3c0 .6-1.7 1.2-3.8 1.2-2.1 0-3.8-.5-3.8-1.2 0-.6 1.7-1.2 3.8-1.2s3.8.6 3.8 1.2z"
         fill="url(#q)" />
      <g
         style="fill:#000027;fill-opacity:1"
         id="g142"
         opacity=".621"
         enable-background="new">
        <linearGradient
           gradientUnits="userSpaceOnUse"
           gradientTransform="matrix(.623 .219 .166 -.789 18.372 -133.516)"
           y2="-246.277"
           y1="-242.262"
           x2="107.319"
           x1="107.319"
           id="r">
          <stop
             id="stop135"
             stop-color="#fff"
             offset="0" />
          <stop
             id="stop137"
             stop-opacity="0"
             stop-color="#fff"
             offset="1" />
        </linearGradient>
        <path
           style="fill:#000027;fill-opacity:1"
           id="path140"
           d="M50.2 84.7c0 1.4-2.3 2.5-5.1 2.5s-5.1-1.1-5.1-2.5 2.3-2.5 5.1-2.5 5.1 1.1 5.1 2.5z"
           fill="url(#r)" />
      </g>
    </g>
    <g
       style="fill:#000027;fill-opacity:1"
       id="g153"
       opacity=".616"
       enable-background="new">
      <radialGradient
         gradientUnits="userSpaceOnUse"
         gradientTransform="matrix(.624 -.173 -.065 -.233 86.317 -1.652)"
         r="9.445"
         cy="-316.224"
         cx="-108.767"
         id="s">
        <stop
           id="stop146"
           stop-color="#fff"
           offset="0" />
        <stop
           id="stop148"
           stop-opacity="0"
           stop-color="#fff"
           offset="1" />
      </radialGradient>
      <path
         style="fill:#000027;fill-opacity:1"
         id="path151"
         d="M34.2 88.3s1 2.7 3.8 2.8c2.8.1 6-3.3 6.2-4.6-.5 1.1-3.1 4.3-6.6 4.3-1.9 0-3.4-2.5-3.4-2.5z"
         fill="url(#s)" />
    </g>
    <radialGradient
       gradientUnits="userSpaceOnUse"
       gradientTransform="matrix(1.712 0 0 -1.685 -261.607 52.03)"
       r="49.468"
       cy="21.454"
       cx="192.543"
       id="t">
      <stop
         id="stop155"
         stop-color="#fff"
         offset="0" />
      <stop
         id="stop157"
         stop-opacity="0"
         stop-color="#fff"
         offset="1" />
    </radialGradient>
    <path
       style="fill:#000027;fill-opacity:1"
       id="path160"
       d="M63.5 5.4c-2.8 0-5.5 1-7.5 3l-37.2 38c-3.4 3.4-4.2 5.6-4 6.9.1.6.4 1.2 1.1 1.7.7.6 1.7 1.1 2.8 1.6 2.4 1 5.6 1.8 8.8 2.7s6.3 1.8 8.6 3.3c.4.2.7.5.9.9.2.4.3 1 .2 1.4-.2.9-.8 1.4-1.3 1.8-1.1.9-2.7 1.6-4.3 2.4s-3.2 1.6-4 2.2c-.4.3-.5.6-.5.6s-.1-.2.1-.1c.5.5 2.1 1.4 4 2.2s4.4 1.6 6.9 2.4c2.4.8 4.9 1.6 7 2.4 2.1.8 3.8 1.6 4.9 2.7.6.6 1 1.3 1 2 .1.7-.1 1.4-.4 2-.6 1.2-1.5 2-2.3 2.9-.8.9-1.6 1.7-1.8 2.2-.1.3-.2.5-.1.6s0 .2.3.5c1.1 1.1 3.4 1.3 6.1 1.9 1.3.3 2.7.8 3.9 1.8 1.2 1 2.1 2.6 2.5 4.7.2.9.6 1.3 1.8 1.7 1.1.4 2.9.4 4.8.1 3.8-.6 8.4-2.4 11-4.6.2-.1.1-.1.2-.2-.2-.1-.6-.4-1.3-.7-.8-.4-1.8-.8-2.5-1.7-.4-.5-.6-1.2-.5-1.9.1-.7.5-1.3 1-1.8 4.3-4.3 8.5-5.4 11.7-6.2 1.6-.4 2.9-.8 3.9-1.4 1-.6 1.8-1.5 2.5-3.2.1-.2.1-.2 0-.5s-.4-.6-.8-.9c-.8-.7-2.3-1.5-3.7-2.3-1.4-.8-2.8-1.5-3.7-2.4-.5-.5-1-1-1.1-1.9-.1-.9.5-1.7 1.2-2.1 2.5-1.7 6.2-3.1 10.3-4.5 4.1-1.4 8.4-2.9 12-4.5 3.6-1.7 6.2-3.6 7-5.5.4-1 .5-1.9.1-3.2-.4-1.3-1.4-2.8-3.2-4.6l-38.7-39.4c-2.1-2-5-3-7.7-3zm41.4 72.2c-2.4.1-4.6 1.2-5.5 2.9.3.1.5.2.9.3 1.2.3 3 .5 4.7.5 1.7 0 3.4-.1 4.5-.4.5-.1.7-.3.8-.3-.2-1-.8-1.7-1.7-2.2-1-.6-2.3-.9-3.7-.8zm-63.6 8.1c-1.9-.1-4.3.6-5.4 1.6-.6.5-.8.9-.8 1.2 0 .3.1.7.8 1.3 1.2 1.1 2.6.9 4.2.1 1.3-.7 2.5-2.1 3.3-3.5-.6-.3-1.2-.6-2.1-.7zm55 .6c-.4.5-.6 1-.6 1.3 0 .5.1.8.5 1.2.7.6 2.1.9 3.6.1 0-.2-.1-.4-.3-.8-.5-.6-1.6-1.3-3.2-1.8z"
       stroke-width=".488"
       stroke="url(#t)"
       fill="none" />
    <g
       style="fill:#000027;fill-opacity:1"
       id="g169"
       opacity=".325"
       enable-background="new">
      <linearGradient
         gradientUnits="userSpaceOnUse"
         gradientTransform="matrix(.485 0 0 -.485 149.184 -95.38)"
         y2="-368.423"
         y1="-354.586"
         x2="-163.979"
         x1="-216.308"
         id="u">
        <stop
           id="stop162"
           stop-color="#fff"
           offset="0" />
        <stop
           id="stop164"
           stop-opacity="0"
           stop-color="#fff"
           offset="1" />
      </linearGradient>
      <path
         style="fill:#000027;fill-opacity:1"
         id="path167"
         d="M43.1 65c-2.2.7-9.5 3.4-8.5 5.5 1 2 17.9 2.8 20.5 8.8 1.1 2.6-2.6 4.6-1.7 7.3.7 2.1 6.3 7.3 9.9 9.7 2.8 1.9 6.5-1.6 5-4.4-2.4-4.6 8.1-10.2 12.9-12.8 2.8-1.5-5.7-8.8-5.7-8.8l-32.4-5.3z"
         fill="url(#u)" />
    </g>
    <linearGradient
       gradientUnits="userSpaceOnUse"
       gradientTransform="matrix(.88 0 0 -.88 42.035 -27.857)"
       y2="-112.767"
       y1="-105.339"
       x2="11.904"
       x1="15.146"
       id="v">
      <stop
         id="stop171"
         stop-color="#EEEEEC"
         offset="0" />
      <stop
         id="stop173"
         stop-opacity="0"
         stop-color="#EEEEEC"
         offset="1" />
    </linearGradient>
    <path
       style="fill:#000027;fill-opacity:1"
       id="path176"
       d="M43.9 67c2 1.5 6 .6 8.4 1.7 5.7 2.6 12.8 5.5 11.5.4l-1.5 1.2v-2.3l-3.4.8s-2.6-2.1-3.8-2.8c-.3-.1-1.5 1.2-1.5 1.2l-.2-1.4c-1.7-.2-3.3-.3-4.8-.2-3.6-.1-6 .5-4.7 1.4z"
       fill="url(#v)" />
    <g
       style="fill:#000027;fill-opacity:1"
       id="g185"
       opacity=".478"
       enable-background="new">
      <radialGradient
         gradientUnits="userSpaceOnUse"
         gradientTransform="matrix(.656 0 0 -.834 66.991 -125.902)"
         r="20.27"
         cy="-251.475"
         cx="21.139"
         id="w">
        <stop
           id="stop178"
           stop-color="#fff"
           offset="0" />
        <stop
           id="stop180"
           stop-opacity="0"
           stop-color="#fff"
           offset="1" />
      </radialGradient>
      <path
         style="fill:#000027;fill-opacity:1"
         id="path183"
         d="M81.5 71.7c-.8 2.9 9.5 6.7 8.8 8.7-1.7 4.3-11 1.4-18.1 10.5-1 1.3 1.4 5.9 1.1 5.4s-2.8-4.4-2.2-6.3c2-5.9 21.6-8.1 18-11-2.1-1.6-9.5-6.1-7.6-7.3z"
         fill="url(#w)" />
    </g>
    <path
       style="fill:#000027;fill-opacity:1"
       id="path187"
       opacity=".586"
       enable-background="new"
       d="M104.7 77.6c0 .3-.5.5-1.1.5-.6 0-1.1-.2-1.1-.5s.5-.5 1.1-.5c.6 0 1.1.2 1.1.5zM97.2 86.2c0 .3-.3.5-.7.5-.4 0-.7-.2-.7-.5s.3-.5.7-.5c.3 0 .7.3.7.5zM40.1 85.8c0 .3-.6.5-1.3.5-.7 0-1.3-.2-1.3-.5s.6-.5 1.3-.5c.7 0 1.3.2 1.3.5z"
       fill="#fff" />
    <linearGradient
       gradientUnits="userSpaceOnUse"
       gradientTransform="matrix(.49 0 0 -.49 147.66 -96.827)"
       y2="-342.521"
       y1="-336.04"
       x2="-224.899"
       x1="-233.056"
       id="x">
      <stop
         id="stop189"
         stop-color="#fff"
         offset="0" />
      <stop
         id="stop191"
         stop-opacity="0"
         stop-color="#fff"
         offset="1" />
    </linearGradient>
    <path
       style="fill:#000027;fill-opacity:1"
       id="path194"
       opacity=".251"
       enable-background="new"
       d="M39.3 65.2c-6.5 4-16.5 5.4-5.5 8.1-1.3-2.9 2.9-2.6 5.5-8.1z"
       fill="url(#x)" />
    <g
       style="fill:#000027;fill-opacity:1"
       id="g203"
       opacity=".363"
       enable-background="new">
      <linearGradient
         gradientUnits="userSpaceOnUse"
         gradientTransform="matrix(.485 0 0 -.485 149.184 -95.38)"
         y2="-300.07"
         y1="-365.933"
         x2="-150.045"
         x1="-125.584"
         id="y">
        <stop
           id="stop196"
           stop-color="#729FCF"
           offset="0" />
        <stop
           id="stop198"
           stop-opacity="0"
           stop-color="#729FCF"
           offset="1" />
      </linearGradient>
      <path
         style="fill:#000027;fill-opacity:1"
         id="path201"
         d="M62.3 101.6s10-.9 12.3-3.8c1.3-1.7-5.4-3.6-3.9-5.3 5.4-6.2 10-5.9 16.3-8.5s4-3.9 1.9-5c-3.5-2-11.3-4-8.7-8.7 2.6-4.7 25.3-11.1 25.3-11.1 6.9-2.3 6-6.6 2.6-10.1l-20.3-20.2s1 19.1-3.1 27.3c-5.1 10.1-32 21.4-20.7 22.7 4 .4 5.9 1.8 7.5 4.8 3.3 6.3-9.2 17.9-9.2 17.9z"
         fill="url(#y)" />
    </g>
  </g>
</svg>
