<?xml version="1.0" encoding="UTF-8" standalone="no"?>
<svg
   xmlns:dc="http://purl.org/dc/elements/1.1/"
   xmlns:cc="http://creativecommons.org/ns#"
   xmlns:rdf="http://www.w3.org/1999/02/22-rdf-syntax-ns#"
   xmlns:svg="http://www.w3.org/2000/svg"
   xmlns="http://www.w3.org/2000/svg"
   xmlns:sodipodi="http://sodipodi.sourceforge.net/DTD/sodipodi-0.dtd"
   xmlns:inkscape="http://www.inkscape.org/namespaces/inkscape"
   inkscape:version="1.0 (4035a4fb49, 2020-05-01)"
   sodipodi:docname="credit6-dribbble.svg"
   id="svg10"
   version="1.1"
   viewBox="10.44 11.653 497.119 124.694"
   height="627"
   width="2500">
  <defs
     id="defs14" />
  <sodipodi:namedview
     inkscape:snap-center="false"
     inkscape:guide-bbox="true"
     showguides="true"
     inkscape:current-layer="svg10"
     inkscape:window-maximized="1"
     inkscape:window-y="-8"
     inkscape:window-x="-8"
     inkscape:cy="313.5"
     inkscape:cx="1005.3049"
     inkscape:zoom="0.26124924"
     showgrid="false"
     id="namedview12"
     inkscape:window-height="705"
     inkscape:window-width="1366"
     inkscape:pageshadow="2"
     inkscape:pageopacity="0"
     guidetolerance="10"
     gridtolerance="10"
     objecttolerance="10"
     borderopacity="1"
     bordercolor="#666666"
     pagecolor="#ffffff" />
  <g
     style="fill:#000027;fill-opacity:1"
     transform="matrix(0.74446847,0,0,0.74446847,128.93554,15.280584)"
     id="g6"
     fill="#2f7460">
    <path
       style="fill:#000027;fill-opacity:1"
       id="path2"
       d="m 201.398,105.244 c -1.085,1.707 -1.952,3.172 -2.917,4.568 -3.089,4.468 -6.069,9.021 -9.384,13.314 -1.787,2.312 -4.047,4.314 -6.31,6.199 -7.846,6.537 -17.161,3.139 -21.72,-2.551 -1.211,-1.51 -2.208,-3.188 -3.237,-4.693 -2.243,2.016 -4.402,4.173 -6.787,6.047 -3.834,3.016 -8.11,4.973 -13.167,4.704 -5.672,-0.3 -9.975,-2.91 -13.028,-7.631 -3.004,-4.646 -4.191,-9.884 -4.773,-15.278 -0.685,-6.333 -0.485,-12.67 0.182,-18.999 0.115,-1.088 0.178,-2.19 0.15,-3.284 -0.05,-2.041 -0.875,-3.146 -2.876,-3.517 -2.757,-0.509 -5.55,-0.83 -8.254,-1.224 -1.502,3.897 -2.827,7.724 -4.433,11.426 -4.134,9.527 -9.343,18.447 -15.757,26.63 -1.345,1.716 -2.902,3.307 -4.555,4.731 -5.704,4.928 -12.354,5.502 -18.76,1.504 -2.279,-1.422 -4.25,-3.338 -6.156,-4.863 -2.334,2.631 -4.58,5.621 -7.281,8.118 -7.132,6.596 -15.367,7.532 -23.985,3.456 C 18.336,129.166 12.735,120.948 10.978,110.087 9.725,102.344 10.612,94.851 14.165,87.808 17.197,81.796 21.517,76.98 28.326,75.404 33.494,74.208 38.744,74.468 43.85,76.542 43.522,73.471 43.118,70.456 42.891,67.429 41.927,54.511 42.156,41.684 46.162,29.191 c 0.994,-3.099 2.275,-6.069 4.326,-8.648 4.146,-5.212 10.715,-6.218 16.176,-2.365 4.576,3.229 7.07,7.929 8.705,13.109 1.89,5.983 2.19,12.192 2.096,18.405 -0.323,21.197 -4.323,41.658 -12.442,61.281 -0.215,0.521 -0.191,1.344 0.082,1.818 0.874,1.521 1.802,3.042 2.925,4.381 1.269,1.514 2.151,1.529 3.892,0.598 6.233,-3.338 10.819,-8.223 14.37,-14.344 4.27,-7.359 8.149,-14.853 10.732,-22.979 0.283,-0.893 0.244,-1.438 -0.562,-2.157 -4.812,-4.297 -7.265,-9.684 -6.516,-16.167 0.688,-5.951 5.969,-8.873 11.495,-6.486 5.146,2.223 7.818,6.506 9.119,11.748 0.749,3.019 0.673,3.047 3.818,3.506 3.96,0.579 7.957,0.969 11.877,1.746 6.412,1.271 9.299,4.732 9.288,11.269 -0.007,4.093 -0.54,8.182 -0.756,12.274 -0.267,5.056 -0.45,10.119 0.746,15.097 a 13.754,13.754 0 0 0 1.333,3.445 c 1.357,2.438 3.688,3.266 6.214,2.075 1.439,-0.678 2.864,-1.61 3.955,-2.754 2.267,-2.376 4.33,-4.948 6.408,-7.495 0.308,-0.377 0.366,-1.062 0.335,-1.595 -0.606,-10.479 0.131,-20.881 1.782,-31.225 0.762,-4.77 2.278,-5.578 6.745,-3.771 4.672,1.89 6.565,4.634 6.42,9.692 -0.183,6.293 -0.581,12.582 -0.73,18.875 -0.101,4.287 -0.176,8.613 1.039,12.787 0.432,1.482 1.086,2.981 1.978,4.233 2.079,2.923 5.578,3.274 8.162,0.81 1.436,-1.369 2.753,-2.938 3.812,-4.612 5.623,-8.908 11.154,-17.874 16.688,-26.839 0.303,-0.489 0.476,-1.15 0.47,-1.73 -0.112,-11.177 0.357,-22.324 1.811,-33.412 1.079,-8.235 2.457,-16.429 5.75,-24.118 1.112,-2.597 2.56,-5.155 4.331,-7.344 3.629,-4.484 8.732,-4.862 13.273,-1.268 3.794,3.003 5.492,7.097 5.834,11.818 0.534,7.352 -1,14.428 -3.015,21.415 -3.923,13.609 -9.688,26.462 -16.188,39.011 a 6.538,6.538 0 0 0 -0.691,3.101 c 0.233,6.831 0.772,13.63 3.277,20.086 0.739,1.903 1.532,3.828 2.616,5.544 1.105,1.75 2.428,3.448 3.963,4.826 2.911,2.613 6.127,2.705 9.25,0.341 a 19.235,19.235 0 0 0 3.885,-3.954 c 2.812,-3.854 4.313,-8.26 4.724,-13.003 0.054,-0.614 -0.373,-1.387 -0.801,-1.903 -1.21,-1.465 -2.688,-2.726 -3.79,-4.261 -3.65,-5.086 -6.386,-10.606 -7.375,-16.87 a 11.754,11.754 0 0 1 -0.137,-1.708 c -0.045,-4.687 2.885,-6.96 7.316,-5.345 1.951,0.711 3.879,1.941 5.362,3.4 5.349,5.252 8.623,11.685 9.996,19.062 0.184,0.979 0.146,1.935 1.559,2.103 2.149,0.259 3.096,0.029 3.788,-1.424 0.509,-1.068 0.763,-2.273 1.354,-3.287 1.151,-1.967 2.479,-3.828 3.699,-5.754 1.25,-1.971 2.486,-3.949 3.66,-5.965 0.213,-0.365 0.123,-0.93 0.117,-1.398 -0.14,-11.13 0.366,-22.229 1.812,-33.271 1.041,-7.95 2.369,-15.867 5.476,-23.312 1.18,-2.824 2.71,-5.615 4.613,-7.996 3.585,-4.486 8.778,-4.828 13.271,-1.241 3.78,3.021 5.479,7.111 5.814,11.831 0.526,7.351 -1.009,14.427 -3.023,21.413 -3.943,13.654 -9.705,26.562 -16.283,39.122 -0.301,0.574 -0.662,1.234 -0.643,1.844 0.248,7.209 0.731,14.393 3.322,21.235 1.203,3.18 2.616,6.253 4.934,8.803 a 14.421,14.421 0 0 0 2.334,2.095 c 2.607,1.846 5.377,2.01 7.993,0.157 1.534,-1.085 2.997,-2.401 4.142,-3.889 3.035,-3.945 4.604,-8.521 5.056,-13.466 0.049,-0.534 -0.121,-1.314 -0.49,-1.627 -4.396,-3.713 -7.103,-8.573 -9.246,-13.756 -1.013,-2.441 -1.529,-5.091 -2.238,-7.656 -0.125,-0.449 -0.121,-0.943 -0.133,-1.42 -0.123,-5.103 3.096,-7.333 7.897,-5.475 2.659,1.029 4.732,2.861 6.509,5.01 4.361,5.28 7.372,11.217 8.371,18.058 0.122,0.832 0.481,1.138 1.196,1.301 2.721,0.624 3.782,-0.045 4.576,-2.758 0.223,-0.761 0.66,-1.472 1.084,-2.151 2.212,-3.562 4.474,-7.099 6.655,-10.68 0.349,-0.57 0.548,-1.331 0.542,-2.001 -0.095,-10.364 0.299,-20.704 1.53,-30.999 1.052,-8.768 2.373,-17.507 5.771,-25.724 1.202,-2.91 2.817,-5.771 4.793,-8.212 3.449,-4.267 8.638,-4.57 12.963,-1.163 3.844,3.027 5.599,7.138 5.944,11.914 0.534,7.352 -1.008,14.428 -3.019,21.415 -3.92,13.611 -9.687,26.461 -16.188,39.008 a 6.524,6.524 0 0 0 -0.702,3.102 c 0.252,6.877 0.846,13.711 3.316,20.229 1.174,3.09 2.572,6.062 4.781,8.566 a 14.91,14.91 0 0 0 2.189,2.044 c 2.709,2.041 5.576,2.216 8.354,0.271 1.499,-1.051 2.914,-2.354 4.025,-3.806 3.026,-3.95 4.614,-8.516 5.062,-13.462 0.05,-0.54 -0.099,-1.33 -0.465,-1.639 -4.469,-3.781 -7.15,-8.747 -9.385,-14.004 -1.329,-3.129 -2.354,-6.358 -2.242,-9.82 0.086,-2.708 1.374,-4.589 3.516,-4.913 1.104,-0.167 2.3,-0.102 3.396,0.136 2.354,0.511 4.256,1.918 5.896,3.612 5.25,5.417 8.645,11.829 9.865,19.291 0.223,1.356 0.801,1.8 1.98,1.825 1.428,0.029 2.909,0.263 4.271,-0.039 1.272,-0.282 2.521,-1.01 3.567,-1.814 0.477,-0.367 0.75,-1.463 0.601,-2.108 -4.891,-21.181 -3.754,-42.236 1.225,-63.21 1.192,-5.024 2.987,-9.848 5.742,-14.26 a 25.382,25.382 0 0 1 1.83,-2.557 c 5.021,-6.151 12.217,-6.75 18.221,-1.51 4.03,3.519 6.188,8.168 7.704,13.152 2.317,7.611 2.839,15.448 2.723,23.348 -0.124,8.379 -0.885,16.658 -3.834,24.604 -2.896,7.804 -7.613,14.48 -12.761,20.901 -0.864,1.079 -1.79,2.115 -2.595,3.238 -0.247,0.346 -0.398,1.022 -0.229,1.362 1.81,3.565 3.642,7.125 5.587,10.616 0.616,1.107 1.524,2.074 2.409,3.003 1.403,1.477 3.131,2.191 5.229,2.237 5.671,0.123 10.693,-1.493 15.098,-5.11 0.938,-0.771 1.147,-1.455 0.935,-2.646 -2.606,-14.494 1.258,-27.042 11.81,-37.313 5.122,-4.987 11.447,-7.428 18.712,-7.176 11.148,0.388 19.408,10.245 17.771,21.3 -1.425,9.603 -6.847,16.691 -14.323,22.42 -3.977,3.045 -8.447,5.153 -13.56,6.575 0.57,0.438 0.967,0.794 1.411,1.069 5.132,3.158 10.797,3.855 16.655,3.495 10.312,-0.638 17.954,-6.026 24.226,-13.784 1.049,-1.297 1.989,-2.68 3.006,-4.004 1.188,-1.549 2.214,-1.699 3.543,-0.277 2.344,2.504 3.834,5.454 3.946,8.956 0.058,1.772 -0.517,3.373 -1.608,4.784 -10.391,13.417 -24.078,19.468 -40.968,18.277 -7.587,-0.534 -14.584,-2.795 -20.607,-7.594 -1.263,-1.006 -2.392,-2.175 -3.294,-3.005 -4.018,2.19 -7.819,4.574 -11.875,6.397 -5.016,2.255 -10.354,3.357 -15.897,2.314 -6.075,-1.146 -10.8,-4.587 -14.391,-9.418 -2.457,-3.308 -4.36,-7.022 -6.497,-10.565 -0.27,-0.443 -0.444,-0.942 -0.706,-1.513 -4.598,1.356 -9.215,1.305 -13.717,0.395 -0.872,3.064 -1.609,6.06 -2.58,8.975 -1.515,4.557 -3.884,8.631 -7.686,11.67 -6.281,5.023 -13.106,5.186 -20.132,1.815 -5.552,-2.663 -9.551,-7.062 -12.729,-12.228 -2.761,-4.492 -4.916,-9.254 -5.888,-14.483 -0.033,-0.179 -0.138,-0.343 -0.336,-0.82 -3.453,5.751 -8.483,6.695 -14.184,4.992 -0.896,3.146 -1.661,6.13 -2.604,9.058 -1.154,3.574 -2.951,6.824 -5.509,9.604 -5.461,5.938 -12.826,7.651 -20.355,4.751 -5.098,-1.965 -9.038,-5.423 -12.329,-9.688 -4.021,-5.214 -6.119,-9.925 -8.637,-19.406 -3.138,6.344 -8.187,7.502 -14.047,5.697 -1.116,3.645 -2.019,7.141 -3.279,10.504 -0.792,2.115 -1.936,4.159 -3.237,6.016 -5.75,8.189 -15.022,10.476 -23.996,6.02 -4.962,-2.464 -8.712,-6.274 -11.789,-10.803 -3.208,-4.733 -4.553,-7.994 -7.278,-17.677 z M 34.944,123.693 c 4.382,0.104 8.274,-1.127 10.953,-4.637 2.267,-2.973 4.064,-6.305 6.012,-9.513 0.19,-0.313 0.055,-0.899 -0.069,-1.319 A 2657.225,2657.225 0 0 0 46.727,91.128 c -0.172,-0.566 -0.409,-1.2 -0.816,-1.6 -4.633,-4.545 -12.725,-5.223 -17.604,0.021 -1.631,1.752 -3.139,3.775 -4.133,5.938 -3.43,7.461 -2.894,15.023 0.146,22.479 1.107,2.715 3.218,4.496 6.103,5.152 1.474,0.337 3.012,0.394 4.521,0.575 z M 58.036,92.366 c 0.183,-0.009 0.364,-0.019 0.545,-0.026 1.072,-4.539 2.252,-9.055 3.194,-13.62 2.561,-12.407 4.248,-24.916 3.86,-37.626 -0.121,-3.963 -0.493,-7.91 -2.014,-11.636 -0.866,-2.124 -1.902,-2.291 -3.451,-0.591 -1.781,1.957 -2.688,4.366 -3.394,6.856 -1.746,6.161 -2.095,12.498 -2.203,18.845 -0.158,9.223 0.529,18.404 1.711,27.543 0.446,3.436 1.16,6.838 1.752,10.255 z m 341.571,-6.723 c 2.188,-2.391 3.728,-4.94 5.011,-7.641 5.132,-10.791 6.916,-22.218 6.227,-34.064 -0.229,-3.947 -0.779,-7.879 -2.419,-11.549 -0.524,-1.176 -1.104,-2.589 -2.556,-2.61 -1.458,-0.021 -1.979,1.465 -2.317,2.592 -1.066,3.547 -2.177,7.105 -2.866,10.736 -1.752,9.198 -2.271,18.531 -2.578,27.873 -0.164,4.868 0.365,9.665 1.498,14.663 z m 49.018,18.569 0.552,0.183 c 0.708,-0.271 1.425,-0.521 2.12,-0.819 6.432,-2.774 11.83,-6.784 14.922,-13.247 0.854,-1.782 1.322,-3.903 1.365,-5.882 0.073,-3.375 -2.736,-5.349 -6.024,-4.565 -2.498,0.596 -4.484,2.04 -6.189,3.896 -3.282,3.572 -5.21,7.839 -6.021,12.566 -0.448,2.586 -0.497,5.242 -0.725,7.868 z M 220.085,28.047 c -4.164,3.379 -9.395,30.516 -8.335,35.37 3.929,-6.006 9.313,-28.695 8.335,-35.37 z m 63.665,0.222 c -3.708,3.072 -9.424,30.182 -8.377,35.52 4.775,-11.627 7.677,-23.305 8.377,-35.52 z m 55.01,35.063 c 4.737,-11.24 7.76,-22.89 8.688,-35.037 l -0.734,-0.175 c -4.951,11.183 -7.213,23.013 -7.954,35.212 z" />
    <path
       style="fill:#000027;fill-opacity:1"
       id="path4"
       d="m 152.124,51.287 c 0.004,-5.626 3.923,-9.875 9.57,-10.375 5.129,-0.454 10.107,3.622 11.029,9.034 0.478,2.806 0.179,5.52 -1.085,8.083 -1.818,3.688 -5.527,5.572 -9.593,4.926 -5.867,-0.931 -9.926,-5.705 -9.921,-11.668 z" />
  </g>
  <metadata
     id="metadata8">
    <rdf:RDF>
      <rdf:Description
         dc:language="en"
         dc:format="image/svg+xml"
         dc:date="2017-06-17"
         dc:publisher="Iconscout"
         dc:description="dribbble"
         dc:title="dribbble"
         about="https://iconscout.com/legal#licenses">
        <dc:creator>
          <rdf:Bag>
            <rdf:li>Icon Mafia</rdf:li>
          </rdf:Bag>
        </dc:creator>
      </rdf:Description>
      <cc:Work
         rdf:about="">
        <dc:format>image/svg+xml</dc:format>
        <dc:type
           rdf:resource="http://purl.org/dc/dcmitype/StillImage" />
        <dc:title></dc:title>
      </cc:Work>
    </rdf:RDF>
  </metadata>
  <circle
     style="stroke-width:0.291845;fill:#000027;fill-opacity:1"
     cx="74.910614"
     cy="72.829842"
     r="56.033817"
     fill="#c32361"
     id="circle4" />
  <path
     style="stroke-width:0.291845;fill:#d8d8ff;fill-opacity:1;stroke:#cccccc"
     fill="#ea4c89"
     d="m 111.97467,42.770041 a 47.570379,47.570379 0 0 1 10.79818,29.767968 c -1.75104,-0.291842 -17.51056,-3.793956 -33.27007,-1.751056 l -4.377638,-9.33897 C 102.92754,54.151913 110.80731,43.937414 111.97467,42.770041 Z m -5.25317,-5.545013 c -0.87552,1.167371 -8.171593,10.798185 -25.098477,17.218728 A 258.28088,258.28088 0 0 0 63.528765,26.426843 C 80.163809,22.341045 96.507006,27.886058 106.7215,37.225028 Z M 54.481646,29.637115 A 302.05731,302.05731 0 0 1 72.28405,57.07034 C 49.812153,63.199041 30.25868,62.907196 27.923938,62.907196 A 48.154065,48.154065 0 0 1 54.481646,29.637115 Z M 27.048414,71.370639 c 2.042904,0 25.390328,0.291842 49.029591,-6.712384 l 4.085804,8.171598 C 59.151124,78.958551 46.310032,93.84254 39.305819,104.93256 A 47.862222,47.862222 0 0 1 27.048414,71.370639 Z m 18.386094,39.398791 c 0.875524,-1.75106 11.090026,-21.01269 37.939566,-30.059826 5.253172,12.257411 9.630808,31.519026 10.214498,36.188516 -10.506333,4.96131 -30.351642,7.29606 -48.154064,-6.12869 z m 56.033822,1.75106 c -0.29183,-2.91844 -2.918423,-16.926901 -9.047115,-34.145627 14.883975,-2.33474 28.016915,1.459219 29.767965,2.042898 a 47.570379,47.570379 0 0 1 -20.72085,32.102729 z"
     id="path6" />
</svg>
