<?xml version="1.0" encoding="UTF-8" standalone="no"?>
<svg
   xmlns:dc="http://purl.org/dc/elements/1.1/"
   xmlns:cc="http://creativecommons.org/ns#"
   xmlns:rdf="http://www.w3.org/1999/02/22-rdf-syntax-ns#"
   xmlns:svg="http://www.w3.org/2000/svg"
   xmlns="http://www.w3.org/2000/svg"
   xmlns:xlink="http://www.w3.org/1999/xlink"
   xmlns:sodipodi="http://sodipodi.sourceforge.net/DTD/sodipodi-0.dtd"
   xmlns:inkscape="http://www.inkscape.org/namespaces/inkscape"
   inkscape:version="1.0 (4035a4fb49, 2020-05-01)"
   sodipodi:docname="home-slide3.svg"
   version="1.1"
   viewBox="0 0 829 744.16"
   height="744.16"
   width="829"
   data-name="Layer 1"
   id="8abbfe23-26e0-4ef7-83d7-6944c41cdadc">
  <metadata
     id="metadata154">
    <rdf:RDF>
      <cc:Work
         rdf:about="">
        <dc:format>image/svg+xml</dc:format>
        <dc:type
           rdf:resource="http://purl.org/dc/dcmitype/StillImage" />
        <dc:title>startman1</dc:title>
      </cc:Work>
    </rdf:RDF>
  </metadata>
  <sodipodi:namedview
     inkscape:current-layer="8abbfe23-26e0-4ef7-83d7-6944c41cdadc"
     inkscape:window-maximized="1"
     inkscape:window-y="-8"
     inkscape:window-x="-8"
     inkscape:cy="405.34299"
     inkscape:cx="414.5"
     inkscape:zoom="0.52551383"
     showgrid="false"
     id="namedview152"
     inkscape:window-height="705"
     inkscape:window-width="1366"
     inkscape:pageshadow="2"
     inkscape:pageopacity="0"
     guidetolerance="10"
     gridtolerance="10"
     objecttolerance="10"
     borderopacity="1"
     bordercolor="#666666"
     pagecolor="#ffffff"
     inkscape:document-rotation="0" />
  <defs
     id="defs13">
    <linearGradient
       gradientUnits="userSpaceOnUse"
       y2="45.25"
       x2="382.9"
       y1="692.59"
       x1="382.9"
       id="8d3987ee-7da6-4397-b7c6-fc969519ed63">
      <stop
         id="stop2"
         stop-opacity="0.25"
         stop-color="gray"
         offset="0" />
      <stop
         id="stop4"
         stop-opacity="0.12"
         stop-color="gray"
         offset="0.54" />
      <stop
         id="stop6"
         stop-opacity="0.1"
         stop-color="gray"
         offset="1" />
    </linearGradient>
    <linearGradient
       xlink:href="#8d3987ee-7da6-4397-b7c6-fc969519ed63"
       y2="383.34"
       x2="577.21"
       y1="539.76"
       x1="577.21"
       id="41a98616-cc8d-45ca-bf5b-bcdeacba7b4f" />
    <linearGradient
       xlink:href="#8d3987ee-7da6-4397-b7c6-fc969519ed63"
       y2="284.95"
       x2="422.99"
       y1="586.26"
       x1="422.99"
       id="cbeba5be-4290-4dae-bc1b-44a303762a01" />
    <linearGradient
       xlink:href="#8d3987ee-7da6-4397-b7c6-fc969519ed63"
       y2="582.42"
       x2="809.48"
       y1="657.06"
       x1="809.48"
       id="d7c56f50-4219-4953-bdbb-ce8107747d0c" />
    <linearGradient
       xlink:href="#8d3987ee-7da6-4397-b7c6-fc969519ed63"
       gradientTransform="translate(-210.42 971.61) rotate(-62.55)"
       y2="553.95"
       x2="728.61"
       y1="677.75"
       x1="728.61"
       id="65800a0c-0f7d-440b-866d-d9a2d0291c31" />
  </defs>
  <title
     id="title15">startman1</title>
  <circle
     id="circle17"
     fill="url(#8d3987ee-7da6-4397-b7c6-fc969519ed63)"
     r="323.67"
     cy="368.92"
     cx="382.9" />
  <circle
     style="fill:#ec0d00;fill-opacity:1"
     id="circle19"
     fill="#0000ff"
     r="315.73"
     cy="368.92"
     cx="382.9" />
  <circle
     id="circle21"
     opacity="0.05"
     r="39.22"
     cy="186.43"
     cx="280.81" />
  <circle
     id="circle23"
     opacity="0.05"
     r="39.22"
     cy="606.43"
     cx="400.77" />
  <circle
     id="circle25"
     opacity="0.05"
     r="80.19"
     cy="324.03"
     cx="439.99" />
  <path
     transform="translate(-185 -76.87)"
     id="path27"
     fill="url(#41a98616-cc8d-45ca-bf5b-bcdeacba7b4f)"
     d="M694.73,539.76c-39.72,0-82-1.9-125.22-5.72-96.07-8.48-185.62-25.41-252.14-47.66-67-22.43-102.8-47.77-100.72-71.35,1.05-11.94,11.57-22.6,31.25-31.68l1,2.25c-18.82,8.68-28.85,18.65-29.82,29.65s7.35,22.84,24.75,34.82c17.1,11.77,42.09,23.19,74.29,34,66.35,22.2,155.69,39.08,251.58,47.54s186.81,7.49,256-2.74c33.58-5,60.19-11.84,79.09-20.43,19.24-8.74,29.49-18.82,30.47-29.95,1.12-12.67-10.33-26.56-33.1-40.16l1.27-2.13c24,14.33,35.53,28.63,34.3,42.51-2.08,23.59-41.74,42.27-111.66,52.6C788,536.92,743.23,539.75,694.73,539.76Z" />
  <path
     id="path29"
     opacity="0.5"
     stroke-width="2.97478"
     stroke-miterlimit="10"
     stroke="#bdbdbd"
     fill="none"
     d="m 706.36164,357.89 c 22.3298,13.57 34.32556,27.67 33.13582,41.33 -4.11986,47.47 -165.63975,71.75 -360.76743,54.23 C 183.60235,435.93 28.758778,383.25 32.878632,335.78 c 0.983259,-11.73 11.651615,-22 30.018887,-30.66" />
  <path
     id="path31"
     fill="url(#cbeba5be-4290-4dae-bc1b-44a303762a01)"
     transform="translate(-185 -76.87)"
     d="M608.39,586.26c-28.62-12.34-57.83-26.11-86.81-40.94-85.87-43.92-162.52-93.21-215.83-138.81-53.72-45.94-77.36-82.85-66.58-103.94,5.46-10.68,19.21-16.61,40.85-17.64l.12,2.47c-20.7,1-33.74,6.46-38.77,16.29s-1.76,23.93,9.88,41.56c11.43,17.32,30.31,37.3,56.11,59.36C360.52,450.11,437,499.29,522.7,543.12c28.94,14.8,58.09,28.55,86.67,40.87Z" />
  <path
     style="stroke:#bdbdbd;stroke-opacity:0.57254905;stroke-width:3.675;stroke-miterlimit:10;stroke-dasharray:none"
     id="path33"
     stroke-width="3.67465"
     stroke-miterlimit="10"
     stroke="#bdbdbd"
     fill="none"
     d="M 543.97,551.02 C 507.10007,537.17757 468.90445,521.54054 430.11817,504.26893 197.30865,400.58216 31.67616,277.2005 60.158805,228.71198 67.194149,216.73274 85.425667,210.42306 112.41199,209.28" />
  <path
     id="path35"
     fill="url(#d7c56f50-4219-4953-bdbb-ce8107747d0c)"
     transform="translate(-185 -76.87)"
     d="M840.73,657.06c-26,0-62.67-8.5-112.17-25.56l.81-2.34c94.46,32.54,141.19,33.86,156.25,4.41,5.79-11.32.39-28.49-15.61-49.65l2-1.49c16.86,22.28,22.19,39.87,15.84,52.27C880.2,649.59,865.12,657.05,840.73,657.06Z" />
  <path
     style="stroke-width:1.675;stroke-miterlimit:10;stroke-dasharray:none"
     id="path37"
     stroke-width="0.978404"
     stroke-miterlimit="10"
     stroke="#bdbdbd"
     fill="none"
     d="m 679.90298,503.81212 c 15.31307,21.10456 21.05547,38.75838 15.05467,51.01102 -13.7722,28.13608 -54.16999,31.0067 -150.98686,-3.80082" />
  <g
     id="g43"
     opacity="0.5">
    <rect
       id="rect39"
       fill="#47e6b1"
       height="18.23"
       width="3.22"
       y="661.7"
       x="94.38" />
    <rect
       id="rect41"
       fill="#47e6b1"
       transform="translate(843.66 389.83) rotate(90)"
       height="18.23"
       width="3.22"
       y="738.56"
       x="279.38" />
  </g>
  <g
     id="g49"
     opacity="0.5">
    <rect
       id="rect45"
       fill="#47e6b1"
       height="18.23"
       width="3.22"
       y="3.22"
       x="748.57" />
    <rect
       id="rect47"
       fill="#47e6b1"
       transform="translate(839.37 -922.84) rotate(90)"
       height="18.23"
       width="3.22"
       y="80.08"
       x="933.57" />
  </g>
  <g
     id="g55"
     opacity="0.5">
    <rect
       id="rect51"
       fill="#47e6b1"
       height="18.23"
       width="3.22"
       y="500.83"
       x="818.28" />
    <rect
       id="rect53"
       fill="#47e6b1"
       transform="translate(1406.7 -494.94) rotate(90)"
       height="18.23"
       width="3.22"
       y="577.7"
       x="1003.28" />
  </g>
  <g
     id="g61"
     opacity="0.5">
    <rect
       id="rect57"
       fill="#47e6b1"
       height="18.23"
       width="3.22"
       y="47.19"
       x="105.1" />
    <rect
       id="rect59"
       fill="#47e6b1"
       transform="translate(239.88 -235.4) rotate(90)"
       height="18.23"
       width="3.22"
       y="124.05"
       x="290.1" />
  </g>
  <path
     id="path63"
     opacity="0.5"
     fill="#4d8af0"
     transform="translate(-185 -76.87)"
     d="M385.22,801.09a3.94,3.94,0,0,1-2.2-4.76,1.89,1.89,0,0,0,.09-.44h0a2,2,0,0,0-3.55-1.31h0a1.89,1.89,0,0,0-.22.39,3.94,3.94,0,0,1-4.76,2.2,1.89,1.89,0,0,0-.44-.09h0a2,2,0,0,0-1.31,3.55h0a1.89,1.89,0,0,0,.39.22,3.94,3.94,0,0,1,2.2,4.76,1.89,1.89,0,0,0-.09.44h0a2,2,0,0,0,3.55,1.31h0a1.89,1.89,0,0,0,.22-.39,3.94,3.94,0,0,1,4.76-2.2,1.89,1.89,0,0,0,.44.09h0a2,2,0,0,0,1.31-3.55h0A1.89,1.89,0,0,0,385.22,801.09Z" />
  <path
     id="path65"
     opacity="0.5"
     fill="#4d8af0"
     transform="translate(-185 -76.87)"
     d="M581.47,814a3.94,3.94,0,0,1-2.2-4.76,1.89,1.89,0,0,0,.09-.44h0a2,2,0,0,0-3.55-1.31h0a1.89,1.89,0,0,0-.22.39,3.94,3.94,0,0,1-4.76,2.2,1.89,1.89,0,0,0-.44-.09h0a2,2,0,0,0-1.31,3.55h0a1.89,1.89,0,0,0,.39.22,3.94,3.94,0,0,1,2.2,4.76,1.89,1.89,0,0,0-.09.44h0a2,2,0,0,0,3.55,1.31h0a1.89,1.89,0,0,0,.22-.39,3.94,3.94,0,0,1,4.76-2.2,1.89,1.89,0,0,0,.44.09h0a2,2,0,0,0,1.31-3.55h0A1.89,1.89,0,0,0,581.47,814Z" />
  <path
     id="path67"
     opacity="0.5"
     fill="#4d8af0"
     transform="translate(-185 -76.87)"
     d="M969.7,296a3.94,3.94,0,0,1-2.2-4.76,1.89,1.89,0,0,0,.09-.44h0a2,2,0,0,0-3.55-1.31h0a1.89,1.89,0,0,0-.22.39,3.94,3.94,0,0,1-4.76,2.2,1.89,1.89,0,0,0-.44-.09h0a2,2,0,0,0-1.31,3.55h0a1.89,1.89,0,0,0,.39.22,3.94,3.94,0,0,1,2.2,4.76,1.89,1.89,0,0,0-.09.44h0a2,2,0,0,0,3.55,1.31h0a1.89,1.89,0,0,0,.22-.39,3.94,3.94,0,0,1,4.76-2.2,1.89,1.89,0,0,0,.44.09h0a2,2,0,0,0,1.31-3.55h0A1.89,1.89,0,0,0,969.7,296Z" />
  <path
     id="path69"
     opacity="0.5"
     fill="#4d8af0"
     transform="translate(-185 -76.87)"
     d="M205.26,579.8a3.94,3.94,0,0,1-2.2-4.76,1.89,1.89,0,0,0,.09-.44h0a2,2,0,0,0-3.55-1.31h0a1.89,1.89,0,0,0-.22.39,3.94,3.94,0,0,1-4.76,2.2,1.89,1.89,0,0,0-.44-.09h0a2,2,0,0,0-1.31,3.55h0a1.89,1.89,0,0,0,.39.22,3.94,3.94,0,0,1,2.2,4.76,1.89,1.89,0,0,0-.09.44h0a2,2,0,0,0,3.55,1.31h0a1.89,1.89,0,0,0,.22-.39,3.94,3.94,0,0,1,4.76-2.2,1.89,1.89,0,0,0,.44.09h0a2,2,0,0,0,1.31-3.55h0A1.89,1.89,0,0,0,205.26,579.8Z" />
  <circle
     id="circle71"
     opacity="0.5"
     fill="#f55f44"
     r="6.43"
     cy="238.08"
     cx="6.43"
     style="fill:#ffa500;fill-opacity:1" />
  <circle
     id="circle73"
     opacity="0.5"
     fill="#4d8af0"
     r="6.43"
     cy="22.52"
     cx="530.86" />
  <circle
     id="circle75"
     opacity="0.5"
     fill="#47e6b1"
     r="6.43"
     cy="6.43"
     cx="176.95" />
  <circle
     id="circle77"
     opacity="0.5"
     fill="#f55f44"
     r="6.43"
     cy="691.73"
     cx="653.12"
     style="fill:#ffa500;fill-opacity:1" />
</svg>
