<?xml version="1.0" encoding="UTF-8" standalone="no"?>
<svg
   xmlns:dc="http://purl.org/dc/elements/1.1/"
   xmlns:cc="http://creativecommons.org/ns#"
   xmlns:rdf="http://www.w3.org/1999/02/22-rdf-syntax-ns#"
   xmlns:svg="http://www.w3.org/2000/svg"
   xmlns="http://www.w3.org/2000/svg"
   xmlns:sodipodi="http://sodipodi.sourceforge.net/DTD/sodipodi-0.dtd"
   xmlns:inkscape="http://www.inkscape.org/namespaces/inkscape"
   inkscape:version="1.0 (4035a4fb49, 2020-05-01)"
   sodipodi:docname="Tiptop Logo.svg"
   id="svg10"
   version="1.1"
   fill="none"
   viewBox="0 0 142 66"
   height="66"
   width="142">
  <metadata
     id="metadata16">
    <rdf:RDF>
      <cc:Work
         rdf:about="">
        <dc:format>image/svg+xml</dc:format>
        <dc:type
           rdf:resource="http://purl.org/dc/dcmitype/StillImage" />
      </cc:Work>
    </rdf:RDF>
  </metadata>
  <defs
     id="defs14" />
  <sodipodi:namedview
     inkscape:current-layer="svg10"
     inkscape:window-maximized="1"
     inkscape:window-y="-8"
     inkscape:window-x="-8"
     inkscape:cy="44.964506"
     inkscape:cx="110.03284"
     inkscape:zoom="2.3140094"
     showgrid="false"
     id="namedview12"
     inkscape:window-height="705"
     inkscape:window-width="1366"
     inkscape:pageshadow="2"
     inkscape:pageopacity="0"
     guidetolerance="10"
     gridtolerance="10"
     objecttolerance="10"
     borderopacity="1"
     bordercolor="#666666"
     pagecolor="#ffffff" />
  <path
     style="fill:#6e8c89;fill-opacity:1"
     id="path2"
     fill="#B5B5B5"
     d="M18.1808 54.976C18.1808 53.1393 18.5889 51.6779 19.4052 50.5919C20.2288 49.4986 21.344 48.952 22.7507 48.952C24.3469 48.952 25.5641 49.5824 26.4023 50.8434V44.2071H27.7033V61H26.4788L26.4241 59.4257C25.586 60.621 24.3542 61.2187 22.7288 61.2187C21.3659 61.2187 20.2653 60.672 19.4271 59.5787C18.5962 58.4781 18.1808 56.9949 18.1808 55.129V54.976ZM19.5036 55.2056C19.5036 56.7143 19.8061 57.906 20.4111 58.7806C21.016 59.648 21.8688 60.0816 22.9694 60.0816C24.5801 60.0816 25.7244 59.371 26.4023 57.9497V52.3958C25.7244 50.8579 24.5874 50.089 22.9912 50.089C21.8906 50.089 21.0342 50.5227 20.422 51.39C19.8097 52.2501 19.5036 53.5219 19.5036 55.2056ZM34.3846 61.2187C33.3788 61.2187 32.4677 60.9708 31.6514 60.4752C30.8423 59.9796 30.2119 59.2908 29.76 58.4089C29.3081 57.5197 29.0821 56.5248 29.0821 55.4242V54.9541C29.0821 53.8171 29.3008 52.7931 29.7381 51.882C30.1827 50.9709 30.7986 50.2566 31.5858 49.7391C32.3729 49.2144 33.2257 48.952 34.1441 48.952C35.5799 48.952 36.7169 49.4439 37.5551 50.4279C38.4006 51.4046 38.8233 52.742 38.8233 54.4403V55.1728H30.3832V55.4242C30.3832 56.7653 30.7658 57.8841 31.5311 58.7806C32.3037 59.6698 33.2731 60.1144 34.4393 60.1144C35.139 60.1144 35.7548 59.9869 36.2869 59.7318C36.8263 59.4767 37.3146 59.0685 37.7519 58.5073L38.5719 59.1305C37.6098 60.5226 36.214 61.2187 34.3846 61.2187ZM34.1441 50.0671C33.1601 50.0671 32.3292 50.4279 31.6514 51.1495C30.9808 51.871 30.5727 52.8404 30.4269 54.0576H37.5223V53.9155C37.4859 52.7785 37.1615 51.8528 36.5493 51.1385C35.9371 50.4243 35.1353 50.0671 34.1441 50.0671ZM47.1118 57.9935C47.1118 57.3448 46.8494 56.8236 46.3246 56.4301C45.8071 56.0365 45.0236 55.7304 43.974 55.5117C42.9245 55.2857 42.1082 55.0306 41.5251 54.7464C40.9493 54.4549 40.5192 54.1014 40.235 53.6859C39.958 53.2705 39.8195 52.7675 39.8195 52.1772C39.8195 51.2442 40.2095 50.4753 40.9894 49.8703C41.7692 49.2581 42.7678 48.952 43.985 48.952C45.3042 48.952 46.361 49.28 47.1555 49.9359C47.9572 50.5846 48.3581 51.4337 48.3581 52.4833H47.0462C47.0462 51.7909 46.7546 51.2151 46.1715 50.7559C45.5957 50.2967 44.8669 50.0671 43.985 50.0671C43.1249 50.0671 42.4325 50.2603 41.9077 50.6466C41.3902 51.0256 41.1315 51.5212 41.1315 52.1334C41.1315 52.7238 41.3465 53.183 41.7765 53.511C42.2138 53.8317 43.0046 54.1269 44.149 54.3965C45.3006 54.6662 46.1606 54.9541 46.7291 55.2602C47.3049 55.5664 47.7313 55.9344 48.0083 56.3645C48.2852 56.7945 48.4237 57.3156 48.4237 57.9279C48.4237 58.9264 48.0192 59.7245 47.2102 60.3222C46.4084 60.9198 45.3589 61.2187 44.0615 61.2187C42.684 61.2187 41.5652 60.887 40.7051 60.2238C39.8523 59.5532 39.426 58.7077 39.426 57.6873H40.7379C40.7889 58.4526 41.1096 59.0503 41.7 59.4803C42.2977 59.9031 43.0848 60.1144 44.0615 60.1144C44.9726 60.1144 45.7087 59.914 46.2699 59.5131C46.8312 59.1123 47.1118 58.6057 47.1118 57.9935ZM51.4972 61H50.1852V49.1706H51.4972V61ZM49.9556 45.7486C49.9556 45.5008 50.0358 45.2931 50.1961 45.1255C50.3565 44.9505 50.5752 44.8631 50.8521 44.8631C51.1291 44.8631 51.3477 44.9505 51.5081 45.1255C51.6757 45.2931 51.7596 45.5008 51.7596 45.7486C51.7596 45.9964 51.6757 46.2042 51.5081 46.3718C51.3477 46.5394 51.1291 46.6233 50.8521 46.6233C50.5752 46.6233 50.3565 46.5394 50.1961 46.3718C50.0358 46.2042 49.9556 45.9964 49.9556 45.7486ZM53.1931 54.976C53.1931 53.1247 53.6012 51.6597 54.4176 50.581C55.2412 49.495 56.3563 48.952 57.763 48.952C59.3738 48.952 60.5983 49.5934 61.4365 50.8762L61.5021 49.1706H62.7265V60.7595C62.7265 62.2828 62.3002 63.4891 61.4474 64.3783C60.5946 65.2675 59.4394 65.7121 57.9817 65.7121C57.1581 65.7121 56.3709 65.5262 55.6202 65.1545C54.8767 64.7901 54.29 64.3017 53.86 63.6895L54.5925 62.9023C55.5181 64.0393 56.6187 64.6078 57.8942 64.6078C58.9875 64.6078 59.8403 64.2835 60.4525 63.6348C61.0647 62.9934 61.3818 62.1006 61.4037 60.9563V59.4694C60.5655 60.6356 59.3446 61.2187 57.7411 61.2187C56.3709 61.2187 55.2703 60.672 54.4394 59.5787C53.6085 58.4854 53.1931 57.0095 53.1931 55.1509V54.976ZM54.5159 55.2056C54.5159 56.7143 54.8184 57.906 55.4234 58.7806C56.0283 59.648 56.8811 60.0816 57.9817 60.0816C59.5924 60.0816 60.7331 59.3601 61.4037 57.9169V52.4177C61.0975 51.6597 60.6566 51.0839 60.0808 50.6903C59.505 50.2894 58.8126 50.089 58.0035 50.089C56.903 50.089 56.0465 50.5227 55.4343 51.39C54.8221 52.2501 54.5159 53.5219 54.5159 55.2056ZM66.0405 49.1706L66.0842 51.1932C66.5288 50.4644 67.0828 49.9104 67.746 49.5314C68.4093 49.1451 69.1418 48.952 69.9435 48.952C71.2118 48.952 72.1556 49.3091 72.7752 50.0234C73.3947 50.7377 73.7081 51.8091 73.7154 53.2377V61H72.4144V53.2267C72.4071 52.1699 72.1811 51.3827 71.7365 50.8652C71.2992 50.3477 70.5959 50.089 69.6265 50.089C68.8175 50.089 68.0995 50.3441 67.4727 50.8543C66.8532 51.3572 66.394 52.0387 66.0952 52.8987V61H64.7942V49.1706H66.0405ZM87.3294 61C87.1983 60.6283 87.1144 60.078 87.078 59.3491C86.6188 59.9468 86.0321 60.4096 85.3178 60.7376C84.6108 61.0583 83.8601 61.2187 83.0656 61.2187C81.9286 61.2187 81.0066 60.9016 80.2996 60.2675C79.5999 59.6334 79.25 58.8316 79.25 57.8623C79.25 56.7107 79.7275 55.7996 80.6823 55.129C81.6443 54.4585 82.9818 54.1232 84.6946 54.1232H87.0671V52.7785C87.0671 51.933 86.8047 51.2697 86.2799 50.7887C85.7624 50.3004 85.0044 50.0562 84.0059 50.0562C83.0948 50.0562 82.3404 50.2894 81.7427 50.7559C81.1451 51.2224 80.8462 51.7836 80.8462 52.4396L79.5343 52.4286C79.5343 51.4884 79.9716 50.6757 80.8462 49.9906C81.7209 49.2982 82.7959 48.952 84.0714 48.952C85.3907 48.952 86.4293 49.2836 87.1873 49.9469C87.9526 50.6028 88.3462 51.5212 88.3681 52.7019V58.2996C88.3681 59.4439 88.4883 60.3003 88.7289 60.8688V61H87.3294ZM83.2187 60.0598C84.0933 60.0598 84.8732 59.8484 85.5583 59.4257C86.2507 59.0029 86.7536 58.4381 87.0671 57.7311V55.129H84.7274C83.4228 55.1436 82.4024 55.3841 81.6662 55.8506C80.9301 56.3098 80.562 56.9439 80.562 57.7529C80.562 58.4162 80.8062 58.9665 81.2945 59.4038C81.7901 59.8411 82.4315 60.0598 83.2187 60.0598ZM89.9984 54.976C89.9984 53.1247 90.4065 51.6597 91.2229 50.581C92.0465 49.495 93.1616 48.952 94.5683 48.952C96.1791 48.952 97.4036 49.5934 98.2418 50.8762L98.3074 49.1706H99.5318V60.7595C99.5318 62.2828 99.1055 63.4891 98.2527 64.3783C97.3999 65.2675 96.2447 65.7121 94.787 65.7121C93.9634 65.7121 93.1762 65.5262 92.4255 65.1545C91.682 64.7901 91.0953 64.3017 90.6653 63.6895L91.3978 62.9023C92.3234 64.0393 93.424 64.6078 94.6995 64.6078C95.7928 64.6078 96.6456 64.2835 97.2578 63.6348C97.87 62.9934 98.1871 62.1006 98.209 60.9563V59.4694C97.3708 60.6356 96.1499 61.2187 94.5465 61.2187C93.1762 61.2187 92.0756 60.672 91.2447 59.5787C90.4138 58.4854 89.9984 57.0095 89.9984 55.1509V54.976ZM91.3213 55.2056C91.3213 56.7143 91.6237 57.906 92.2287 58.7806C92.8336 59.648 93.6864 60.0816 94.787 60.0816C96.3978 60.0816 97.5384 59.3601 98.209 57.9169V52.4177C97.9028 51.6597 97.4619 51.0839 96.8861 50.6903C96.3103 50.2894 95.6179 50.089 94.8088 50.089C93.7083 50.089 92.8519 50.5227 92.2396 51.39C91.6274 52.2501 91.3213 53.5219 91.3213 55.2056ZM106.18 61.2187C105.175 61.2187 104.263 60.9708 103.447 60.4752C102.638 59.9796 102.008 59.2908 101.556 58.4089C101.104 57.5197 100.878 56.5248 100.878 55.4242V54.9541C100.878 53.8171 101.097 52.7931 101.534 51.882C101.978 50.9709 102.594 50.2566 103.382 49.7391C104.169 49.2144 105.021 48.952 105.94 48.952C107.376 48.952 108.513 49.4439 109.351 50.4279C110.196 51.4046 110.619 52.742 110.619 54.4403V55.1728H102.179V55.4242C102.179 56.7653 102.562 57.8841 103.327 58.7806C104.099 59.6698 105.069 60.1144 106.235 60.1144C106.935 60.1144 107.551 59.9869 108.083 59.7318C108.622 59.4767 109.11 59.0685 109.548 58.5073L110.368 59.1305C109.406 60.5226 108.01 61.2187 106.18 61.2187ZM105.94 50.0671C104.956 50.0671 104.125 50.4279 103.447 51.1495C102.777 51.871 102.368 52.8404 102.223 54.0576H109.318V53.9155C109.282 52.7785 108.957 51.8528 108.345 51.1385C107.733 50.4243 106.931 50.0671 105.94 50.0671ZM113.069 49.1706L113.113 51.1932C113.558 50.4644 114.112 49.9104 114.775 49.5314C115.438 49.1451 116.171 48.952 116.972 48.952C118.241 48.952 119.184 49.3091 119.804 50.0234C120.424 50.7377 120.737 51.8091 120.744 53.2377V61H119.443V53.2267C119.436 52.1699 119.21 51.3827 118.765 50.8652C118.328 50.3477 117.625 50.089 116.655 50.089C115.846 50.089 115.128 50.3441 114.502 50.8543C113.882 51.3572 113.423 52.0387 113.124 52.8987V61H111.823V49.1706H113.069ZM127.163 60.1144C128.074 60.1144 128.836 59.8593 129.448 59.3491C130.068 58.8316 130.403 58.1647 130.454 57.3484H131.711C131.675 58.07 131.449 58.7296 131.033 59.3273C130.618 59.9176 130.064 60.3805 129.372 60.7157C128.686 61.051 127.95 61.2187 127.163 61.2187C125.611 61.2187 124.379 60.6793 123.468 59.6006C122.564 58.5219 122.112 57.0715 122.112 55.2493V54.8557C122.112 53.6895 122.316 52.6582 122.724 51.7617C123.133 50.8652 123.716 50.1728 124.474 49.6845C125.239 49.1961 126.132 48.952 127.152 48.952C128.45 48.952 129.517 49.3383 130.356 50.1109C131.201 50.8834 131.653 51.9002 131.711 53.1611H130.454C130.396 52.2355 130.06 51.4884 129.448 50.9199C128.843 50.3514 128.078 50.0671 127.152 50.0671C125.971 50.0671 125.053 50.4935 124.397 51.3463C123.748 52.199 123.424 53.3944 123.424 54.9323V55.3149C123.424 56.8236 123.748 58.0007 124.397 58.8462C125.053 59.6917 125.975 60.1144 127.163 60.1144ZM136.742 59.1195L140.196 49.1706H141.607L136.556 63.0116L136.293 63.6239C135.645 65.0597 134.643 65.7777 133.287 65.7777C132.973 65.7777 132.638 65.7266 132.281 65.6246L132.27 64.5423L132.948 64.6078C133.589 64.6078 134.107 64.4475 134.5 64.1268C134.901 63.8134 135.24 63.2704 135.517 62.4978L136.097 60.9016L131.636 49.1706H133.068L136.742 59.1195Z" />
  <path
     style="fill:#6e8c89;fill-opacity:1"
     id="path4"
     fill="#B5B5B5"
     d="M69.3252 37.0001H65.0537V17.9806H69.3252V37.0001ZM64.79 13.0411C64.79 12.3849 64.9951 11.8399 65.4053 11.4063C65.8271 10.9727 66.4248 10.756 67.1982 10.756C67.9717 10.756 68.5693 10.9727 68.9912 11.4063C69.4131 11.8399 69.624 12.3849 69.624 13.0411C69.624 13.6856 69.4131 14.2247 68.9912 14.6583C68.5693 15.0802 67.9717 15.2911 67.1982 15.2911C66.4248 15.2911 65.8271 15.0802 65.4053 14.6583C64.9951 14.2247 64.79 13.6856 64.79 13.0411ZM88.8474 27.6837C88.8474 30.6251 88.1795 32.9747 86.8435 34.7325C85.5076 36.4786 83.7146 37.3516 81.4646 37.3516C79.3787 37.3516 77.7088 36.6661 76.4549 35.295V44.3126H72.1834V17.9806H76.1209L76.2967 19.9141C77.5506 18.3907 79.2556 17.629 81.4119 17.629C83.7322 17.629 85.5486 18.4962 86.8611 20.2305C88.1853 21.9532 88.8474 24.3497 88.8474 27.42V27.6837ZM84.5935 27.3145C84.5935 25.4161 84.2127 23.9102 83.451 22.797C82.701 21.6837 81.6228 21.127 80.2166 21.127C78.4705 21.127 77.2166 21.8477 76.4549 23.2891V31.7266C77.2283 33.2032 78.4939 33.9415 80.2517 33.9415C81.6111 33.9415 82.6717 33.3965 83.4334 32.3067C84.2068 31.2051 84.5935 29.5411 84.5935 27.3145ZM96.0298 13.3575V17.9806H99.3873V21.1446H96.0298V31.7618C96.0298 32.4883 96.1705 33.0157 96.4517 33.3438C96.7447 33.6602 97.2603 33.8184 97.9986 33.8184C98.4908 33.8184 98.9888 33.7598 99.4927 33.6426V36.9473C98.5201 37.2169 97.5826 37.3516 96.6802 37.3516C93.399 37.3516 91.7584 35.5411 91.7584 31.92V21.1446H88.6295V17.9806H91.7584V13.3575H96.0298ZM99.5384 27.3145C99.5384 25.4512 99.9076 23.7755 100.646 22.2872C101.384 20.7872 102.421 19.6388 103.757 18.8419C105.093 18.0333 106.628 17.629 108.363 17.629C110.929 17.629 113.009 18.4552 114.603 20.1075C116.208 21.7598 117.076 23.9512 117.204 26.6817L117.222 27.6837C117.222 29.5587 116.859 31.2344 116.132 32.711C115.417 34.1876 114.386 35.3301 113.038 36.1387C111.702 36.9473 110.156 37.3516 108.398 37.3516C105.714 37.3516 103.564 36.461 101.947 34.6798C100.341 32.8868 99.5384 30.502 99.5384 27.5255V27.3145ZM103.81 27.6837C103.81 29.6407 104.214 31.1758 105.023 32.2891C105.831 33.3907 106.956 33.9415 108.398 33.9415C109.839 33.9415 110.958 33.379 111.755 32.254C112.564 31.129 112.968 29.4825 112.968 27.3145C112.968 25.3927 112.552 23.8692 111.72 22.7442C110.9 21.6192 109.781 21.0567 108.363 21.0567C106.968 21.0567 105.861 21.6134 105.04 22.7266C104.22 23.8282 103.81 25.4805 103.81 27.6837ZM135.69 27.6837C135.69 30.6251 135.022 32.9747 133.686 34.7325C132.35 36.4786 130.557 37.3516 128.307 37.3516C126.221 37.3516 124.551 36.6661 123.297 35.295V44.3126H119.026V17.9806H122.963L123.139 19.9141C124.393 18.3907 126.098 17.629 128.254 17.629C130.574 17.629 132.391 18.4962 133.703 20.2305C135.027 21.9532 135.69 24.3497 135.69 27.42V27.6837ZM131.436 27.3145C131.436 25.4161 131.055 23.9102 130.293 22.797C129.543 21.6837 128.465 21.127 127.059 21.127C125.313 21.127 124.059 21.8477 123.297 23.2891V31.7266C124.07 33.2032 125.336 33.9415 127.094 33.9415C128.453 33.9415 129.514 33.3965 130.276 32.3067C131.049 31.2051 131.436 29.5411 131.436 27.3145Z" />
  <path
     style="fill:#6e8c89;fill-opacity:1"
     id="path6"
     fill="#B5B5B5"
     d="M55.2684 7.51226C51.3405 7.51226 23.8451 4.10982 19.9171 7.51226C15.9892 10.9147 15.0072 37.0001 19.9171 37.0001H55.2684C60.1783 37.0001 59.1964 7.51226 55.2684 7.51226Z" />
  <path
     style="fill:#6e8c89;fill-opacity:1"
     id="path8"
     fill="#B5B5B5"
     d="M74.823 9.94284L36.5772 14.7506C35.4812 14.8884 33.7306 14.7585 32.6669 14.4604L1.92583 5.84632C0.862226 5.54829 0.888444 5.195 1.98439 5.05723L40.2303 0.249466C41.3262 0.111699 43.0769 0.241622 44.1405 0.539659L74.8816 9.15375C75.9452 9.45179 75.919 9.80508 74.823 9.94284Z" />
</svg>
