<?xml version="1.0" encoding="UTF-8" standalone="no"?>
<svg
   xmlns:dc="http://purl.org/dc/elements/1.1/"
   xmlns:cc="http://creativecommons.org/ns#"
   xmlns:rdf="http://www.w3.org/1999/02/22-rdf-syntax-ns#"
   xmlns:svg="http://www.w3.org/2000/svg"
   xmlns="http://www.w3.org/2000/svg"
   xmlns:sodipodi="http://sodipodi.sourceforge.net/DTD/sodipodi-0.dtd"
   xmlns:inkscape="http://www.inkscape.org/namespaces/inkscape"
   inkscape:version="1.0 (4035a4fb49, 2020-05-01)"
   sodipodi:docname="wash junkie.svg"
   xml:space="preserve"
   style="enable-background:new 0 0 325.1 56;"
   viewBox="0 0 325.1 56"
   y="0px"
   x="0px"
   id="Layer_1"
   version="1.1"><metadata
   id="metadata41"><rdf:RDF><cc:Work
       rdf:about=""><dc:format>image/svg+xml</dc:format><dc:type
         rdf:resource="http://purl.org/dc/dcmitype/StillImage" /><dc:title>logo</dc:title></cc:Work></rdf:RDF></metadata><defs
   id="defs39" /><sodipodi:namedview
   inkscape:current-layer="Layer_1"
   inkscape:window-maximized="1"
   inkscape:window-y="-8"
   inkscape:window-x="-8"
   inkscape:cy="28.963887"
   inkscape:cx="162.78832"
   inkscape:zoom="2.3530258"
   showgrid="false"
   id="namedview37"
   inkscape:window-height="705"
   inkscape:window-width="1366"
   inkscape:pageshadow="2"
   inkscape:pageopacity="0"
   guidetolerance="10"
   gridtolerance="10"
   objecttolerance="10"
   borderopacity="1"
   bordercolor="#666666"
   pagecolor="#ffffff" />
<style
   id="style2"
   type="text/css">
	.st0{fill:#FFFFFF;}
</style>
<title
   id="title4">logo</title>
<g
   style="fill:#6e8c89;fill-opacity:1"
   id="Layer_2_1_">
	<g
   style="fill:#6e8c89;fill-opacity:1"
   id="Layer_1-2">
		<path
   style="fill:#6e8c89;fill-opacity:1"
   id="path6"
   d="M17.6,13.7c-0.4,0.1-0.8,0.2-1.2,0.1c-1.3,0-2.5-0.2-3.7-0.6c-3.4-0.9-6.6-2.4-9.4-4.5C2.3,8,1.4,7,0.7,6    c-1.1-1.6-0.9-3.8,0.5-5.1C2,0.1,3.3-0.2,4.4,0.2C7.1,1,9.5,2.4,11.5,4.3c2.3,2,4.4,4.3,6,6.9c0.3,0.4,0.5,0.9,0.7,1.4    C18.4,13.2,18.2,13.5,17.6,13.7"
   class="st0" />
		<path
   style="fill:#6e8c89;fill-opacity:1"
   id="path8"
   d="M17.5,21.1c-2.1,1.3-4.6,2-7.1,2c-0.8,0-1.5-0.1-2.3-0.2c-1.8-0.4-3-2.2-2.5-4.1c0-0.4,0.2-0.8,0.4-1.1    c0.7-0.9,1.7-1.4,2.9-1.5c2.3-0.4,4.6,0,6.6,1c0.8,0.4,1.6,0.9,2.3,1.5c0.6,0.4,0.8,1.3,0.3,1.9C18,20.8,17.8,21,17.5,21.1"
   class="st0" />
		<path
   style="fill:#6e8c89;fill-opacity:1"
   id="path10"
   d="M100.7,12.2c-0.3,2-0.7,3.9-1.4,5.8c-0.8,2.6-1.9,5.1-3.1,7.5c-1.2,2.3-2.5,4.6-3.9,6.8    c-0.5,0.8-1,1.6-1.6,2.4c-2.4,3.3-5.1,6.4-8.2,9.1c-0.7,0.3-1.3,0.8-1.9,1.2c-1.9,1.3-4.3,1.8-6.6,1.3c-2-0.4-3.8-1.5-5.1-3.1    c-0.6-0.7-1.2-1.5-1.7-2.3c-0.9-1.5-1.7-3.1-2.6-4.6c-0.4-0.8-1-1.6-1.7-2.2c-1.2-1.2-3.1-1.1-4.2,0c-0.1,0.1-0.1,0.1-0.2,0.2    c-0.7,0.7-1.3,1.5-1.7,2.4c-0.8,1.5-1.5,3-2.2,4.5c-0.8,1.9-1.9,3.6-3.2,5.3c-0.9,1.2-2.1,2.2-3.5,2.9c-2.2,1.2-4.9,1-6.9-0.6    c-1.5-1.1-2.9-2.4-4.1-3.8l-0.2-0.3c-1.8-2.2-3.6-4.5-5.2-6.8c-2.4-3.5-4.8-7.1-7.2-10.6l-0.1-0.1L24.1,27l-0.7-1l-0.1-0.1    c-1-1.7-2.2-4.4-1-6.1c1.9-2.6,7.3-2.3,10.8-0.9l0.3,0.1c0.6,0.3,1.2,0.6,1.9,0.8c2.5,1,5.1,1.3,7.8,0.9c1-0.1,2-0.6,2.7-1.3    c0.3-0.2,0.7-0.4,0.9-0.7c1.2-1.2,2.2-2.7,2.8-4.3c0.9-2,1.9-3.9,3.1-5.8c1.2-2,3.2-3.4,5.5-3.9c1.8-0.6,3.7-0.2,5.2,0.9    c0.7,0.6,1.3,1.2,1.8,2c1,1.6,2,3.3,2.8,5c0.4,1,0.9,1.9,1.5,2.8c0.5,1,1,1.9,1.6,2.8c0.5,0.7,1.1,1.2,1.7,1.8    c1.1,0.9,2.7,1,3.9,0.2c0.9-0.6,1.6-1.3,2.3-2.1c1.9-2.3,3.5-4.9,5.2-7.4c1.4-2.2,3.1-4.3,5.1-6.2c0.9-0.9,2-1.6,3.2-2    c1-0.4,2.1-0.5,3.2-0.3c0.7,0.2,1.3,0.5,2,0.7c1,0.6,1.9,1.5,2.5,2.6C100.7,7.5,101,9.9,100.7,12.2"
   class="st0" />
		<path
   style="fill:#6e8c89;fill-opacity:1"
   id="path12"
   d="M18.8,21c0.2,0.1,0.3,0.2,0.5,0.4C19.1,21.3,18.9,21.1,18.8,21"
   class="st0" />
		<path
   style="fill:#6e8c89;fill-opacity:1"
   id="path14"
   d="M23.9,26.9c-0.1-0.2-0.5-0.7-0.8-1.2L23.9,26.9"
   class="st0" />
		<path
   style="fill:#6e8c89;fill-opacity:1"
   id="path16"
   d="M119.7,48.4c-0.5-0.4-0.9-0.9-1.1-1.4c-0.3-0.6-0.7-0.9-1-0.9l-6.7-1.1c-2.2-0.4-4.1-1.8-5.3-3.7    c-0.7-1-1.1-2.3-1-3.5c-0.1-1.9,0.5-3.8,1.6-5.3c2.5-3.4,6.3-5.1,11.2-5.1c2.1,0,3.1,0.1,3,0.2c0.4-0.6,0.6-1.4,0.5-2.1    c0-1.1-0.3-1.7-1-1.9c-0.6-0.1-1.3-0.2-1.9-0.2c-1.3,0-2.5,0.3-3.7,0.8c-1.3,0.5-2.6,1-3.9,1.5c-0.2,0.1-0.4,0.1-0.6,0.1    c-0.7,0-1.2-0.5-1.7-1.5c-0.3-0.8-0.5-1.6-0.5-2.5c0-0.3,0-0.7,0.2-1c2.8-1.9,6.1-2.9,9.4-2.9c3.7,0,6.2,1.3,7.4,3.9    c0.7,1.5,1,3.1,1,4.7c-0.1,2-0.4,4-0.8,5.9c-0.5,2-0.9,4-1.1,6.1c-0.2,3.2-0.4,5.3-0.6,6.5c-0.5,2.6-1.3,3.9-2.4,3.9    C120.3,48.8,120,48.7,119.7,48.4 M118.5,40.8c0.1-0.6,0.4-1.7,0.8-3.2c0.3-0.9,0.5-1.9,0.6-2.9c0-0.9-0.2-1.8-0.6-2.7    c-2.2,0.5-4.3,0.9-6.4,1.3c-2.5,0.7-3.8,2.2-3.8,4.4c0,1,0.9,1.8,2.8,2.5c1.6,0.6,3.3,0.9,5,1C117.9,41.2,118.4,41.1,118.5,40.8     M117.2,36.1c0,0.7-0.2,1.3-0.6,1.8c-0.4,0.7-0.8,1-1.2,1c-0.7,0-1.3-0.3-1.6-0.9c-0.4-0.5-0.5-1.1-0.5-1.7    c0.2-0.9,0.9-1.3,2.2-1.3S117.2,35.4,117.2,36.1"
   class="st0" />
		<path
   style="fill:#6e8c89;fill-opacity:1"
   id="path18"
   d="M142.3,18.7c1.6,0.7,3.2,1.3,4.8,2c1.5,0.6,2.8,1.8,3.6,3.2c0.1,0.2,0.2,0.5,0.2,0.7c0.1,1-0.4,2-1.2,2.5    c-0.4,0.2-0.8,0.3-1.3,0.3c-0.7,0-2.1-0.6-4.1-1.8c-1.4-1-3-1.6-4.7-1.8c-0.9,0-1.7,0.3-2.5,0.7c-0.4,0.2-0.6,0.6-0.6,1.1    c0.1,0.8,0.5,1.5,1.1,2c0.5,0.6,1.1,1.1,1.9,1.5c3.7,1.2,7.1,3,10,5.5c0.8,0.8,1.2,1.9,1.1,3c0,1.6-0.5,3.2-1.4,4.5    c-1.1,1.7-2.6,3-4.4,3.8c-1.9,1-4.1,1.6-6.3,1.6c-3.8,0-6.5-1.6-8-4.8c-0.1-0.3-0.2-0.6-0.2-0.9c0-0.8,0.4-1.5,1-2    c0.6-0.6,1.3-0.9,2.2-1c0.6-0.1,1.1,0.3,1.6,1.2c0.3,0.7,0.8,1.3,1.3,1.7c0.8,0.4,1.7,0.6,2.6,0.6c1.4,0,2.8-0.4,3.9-1.2    c1.1-0.7,1.7-1.8,1.7-3.1c0-1-1-1.9-2.9-2.8c-2.2-0.9-4.3-1.8-6.4-2.7c-2-1-3.7-2.5-4.7-4.5c-0.3-0.5-0.4-1.1-0.4-1.6    c0-1.9,1.2-3.7,3.6-5.5c1.9-1.6,4.3-2.4,6.7-2.5C141.1,18.3,141.7,18.4,142.3,18.7"
   class="st0" />
		<path
   style="fill:#6e8c89;fill-opacity:1"
   id="path20"
   d="M156.4,26.8c0-0.7-0.1-1.7-0.2-3.2s-0.2-2.5-0.2-3.2c0-1.4,0.3-2.8,0.9-4.1c0.4-1.1,1.4-1.6,2.9-1.6    c0.5,0,1,0.1,1.5,0.3c0.6,0.3,0.8,1.2,0.8,2.6c-0.5,4.4-0.8,7.2-0.8,8.5c0,2,0.2,3.9,0.8,5.8c2.5-4.4,5.2-6.6,8.1-6.6    c0.8,0,1.6,0.2,2.4,0.5c1.9,7.8,2.8,13.4,2.8,16.9c0,1,0,2-0.1,3c-0.1,0.6-0.5,1-1,1.3c-0.6,0.3-1.3,0.5-2,0.5    c-0.6,0-1.1-0.1-1.5-0.5c-1.1-1.4-1.7-3.6-1.7-6.6v-2.5c0.1-2.1-0.3-4.2-1.1-6.2c-2.9,3-5.2,6.5-6.9,10.3    c-0.4,0.5-0.9,0.9-1.5,1.1c-0.6,0.3-1.3,0.4-1.9,0.2c-0.4-0.1-0.8-0.2-1.3-0.3s-0.8-0.4-0.8-0.7c0-1.7,0.1-4.3,0.4-7.7    S156.4,28.6,156.4,26.8 M167.1,23.4c0.8-1,2-1.6,3.3-1.7c0.6,0,1.1,0.1,1.6,0.4c0.4,0.2,0.9,0.3,1.3,0.4c0.5,0,1-0.3,1.3-0.7    c0.4-0.4,0.6-1,0.6-1.6c0-0.5-0.2-1.1-0.6-1.4c-1.4-1.2-3.1-1.9-5-2c-1.8,0-3.5,1.2-3.9,3c-0.2,0.5-0.3,1-0.3,1.5    c0,1.4,0.4,2.1,1.3,2.1C166.8,23.4,167,23.4,167.1,23.4"
   class="st0" />
		<path
   style="fill:#6e8c89;fill-opacity:1"
   id="path22"
   d="M198.1,19.6c0.2-0.8,1.1-1.1,2.5-1.1s2.5,0.5,2.9,1.6c0.1,0.8,0,1.5-0.2,2.3c-0.2,0.7-0.3,1.5-0.3,2.3    c0,1,0.2,3.2,0.6,6.8c0.3,2.9,0.4,5.2,0.4,7c0,7.5-2.3,13-7,16.4c-1.1,0.7-2.4,1.1-3.7,1c-1.4,0-2.7-0.4-3.8-1.1    c-1.1-0.7-2-1.7-2.4-3c-0.1-0.3-0.2-0.6-0.2-0.9c0-0.8,0.4-1.5,1-1.9c0.6-0.5,1.3-0.8,2.1-0.9c0.7,0.1,1.3,0.5,1.6,1.1    c0.7,1.2,1.1,1.7,1.1,1.8c0.5,0.3,1,0.4,1.5,0.5c1.8-1.2,3-3.1,3.6-5.1c0.5-2.1,0.9-4.2,1-6.3c0-0.6,0.1-1.2,0.1-1.8    c-0.1-2.3-0.3-4.5-0.7-6.7s-0.6-4.5-0.7-6.8C197.3,23.2,197.5,21.4,198.1,19.6 M196.1,13.7c-0.4-0.8-0.7-1.6-0.7-2.5    s0.3-1.7,1-2.3c0.9-0.8,2-1.2,3.1-1.2c1.1-0.1,2.2,0.5,2.9,1.5c0.5,0.8,0.8,1.8,0.8,2.7c0.1,1.2-0.4,2.3-1.4,3    c-0.8,0.6-1.7,0.9-2.6,0.9C197.8,15.8,196.6,14.9,196.1,13.7"
   class="st0" />
		<path
   style="fill:#6e8c89;fill-opacity:1"
   id="path24"
   d="M210.7,24.3c0-1.1,0.1-2.2,0.2-3.4c0-1,0.5-2,1.4-2.6c0.7-0.3,1.4-0.4,2.1-0.4c2.2,0,3.2,0.8,3.2,2.3    l-0.2,6.2c-0.1,2.1,0,4.2,0.2,6.2l1,4.5c0.5,1.9,1.2,2.8,2,2.8c0.3,0,0.6-0.1,0.8-0.3c3.5-2.4,5.3-6,5.3-10.9    c0-2.7-0.7-5.3-2.1-7.5c-0.7-1-1.1-2.1-1.1-3.3c0-1.2,0.8-1.8,2.5-1.8s3.1,0.9,4.4,2.8c1.1,1.5,1.7,3.3,1.8,5.2    c0.3,4-0.2,8-1.5,11.8c-1.5,4.1-3.8,6.9-7,8.2c-1.2,0.5-2.4,0.8-3.7,0.8c-3.2,0-5.7-2.1-7.4-6.2c-1.5-3.8-2.2-7.9-2.1-11.9    C210.6,25.9,210.6,25.1,210.7,24.3"
   class="st0" />
		<path
   style="fill:#6e8c89;fill-opacity:1"
   id="path26"
   d="M238.3,33.3c0-0.7-0.1-1.8-0.2-3.2s-0.2-2.6-0.2-3.3c0-1.3,0.2-2.7,0.6-3.9c0.4-0.9,1.4-1.5,2.4-1.3    c1.2-0.2,2.3,0.5,2.6,1.6c0.1,0.3,0.1,0.6,0.1,0.9c0,0.7-0.2,1.3-0.4,1.9c-0.2,0.7-0.3,1.3-0.4,2c0.4,0.3,0.6,0.6,0.6,0.8    c0.8-1.5,1.8-2.9,2.9-4.3c0.9-1.3,2.4-2.1,4-2.1c0.6,0,1.2,0.1,1.7,0.3c1.6,2.8,2.6,6,2.9,9.2c0.1,1,0.3,4.3,0.6,9.8    c0.5,1.9,0.2,2.9-0.8,3.2c-0.9,0.3-1.8,0.5-2.7,0.5c-1,0-1.5-0.4-1.6-1.1c-0.2-1.6-0.4-4.2-0.6-7.9c-0.1-2.6-0.3-5.1-0.8-7.7    c-1.5,1.8-2.6,3.8-3.3,6c-0.8,2.2-1.7,4.4-2.8,6.5c-0.5,0.9-1.4,1.5-2.5,1.4c-1.1,0-2.1-0.9-2.2-2c-0.2-1.2-0.3-2.4-0.2-3.7    C238.2,34.2,238.3,33,238.3,33.3 M245.3,13c0.4,0,0.8,0.7,1.2,1.9c0.4,1.1,0.6,2.2,0.6,3.4c0,1.2-0.4,1.8-1.1,1.8    c-0.9,0-2.2-1.3-3.9-4c-0.1-0.2-0.2-0.5-0.2-0.8c0.1-0.7,0.5-1.3,1.2-1.6C243.6,13.3,244.4,13.1,245.3,13 M253.8,13    c-0.1,1.2-0.4,2.3-0.9,3.4c-0.7,1.6-1.4,2.4-2.1,2.4s-1.1-0.7-1.5-2.2c0-0.2-0.2-1.2-0.4-3c-0.1-1.1,0.8-1.7,2.8-1.7    C253.1,12,253.8,12.4,253.8,13 M260.4,18.7c0.2,0.5-0.3,1.2-1.5,1.9c-0.8,0.7-1.9,1-3,0.9c-0.6-0.2-0.9-0.7-0.9-1.6    c0-1.4,0.4-2.7,1.1-3.9c0.1-0.3,0.4-0.5,0.8-0.4c0.8,0.1,1.5,0.5,2,1.1C259.5,17.3,260,17.9,260.4,18.7"
   class="st0" />
		<path
   style="fill:#6e8c89;fill-opacity:1"
   id="path28"
   d="M262.8,22.1c0.1-1.6,0-3.3-0.2-4.9s-0.4-3.2-0.5-4.9c0-1.3,0.2-2.7,0.7-3.9c0.5-1.3,1.8-1.9,3.8-1.9    c0.4,0,0.9,0.1,1.3,0.2c0.4,0.3,0.7,0.8,0.8,1.4c0,1.7-0.1,4.8-0.3,9.3c-0.2,3.9-0.2,6.9-0.2,9.3c0.1,0.2,0.6,0.2,1.5,0.2    c1.2-0.9,2.4-1.9,3.6-2.8c1.1-0.9,2.5-1.4,3.9-1.5c1,0,1.9,0.3,2.7,0.8c0.5,0.3,0.8,0.7,0.8,1.1c0,0.9-0.6,1.5-1.6,2.1    c-0.4,0.2-1.5,0.9-3.3,1.9c-1.2,0.6-2.3,1.4-3.3,2.4c3,2.3,7.2,5.9,12.6,10.9c0.2,0.3,0.4,0.6,0.4,1c0,0.8-0.5,1.5-1.2,1.8    c-0.6,0.8-1.5,1.2-2.4,1.2c-0.7,0-1.4-0.3-1.9-0.8c-0.9-1-4.3-3.8-10-8.6c-0.2-0.1-0.4-0.2-0.6-0.3c-0.3,0-0.4,0.3-0.3,0.8    c-0.1,1.3,0,2.7,0.3,4c0.2,1.3,0.3,2.7,0.3,4c-0.2,1.4-1.2,2.2-3,2.2c-1,0-1.6-0.2-1.8-0.8c-1.6-3.8-2.4-8.5-2.4-14.3    C262.4,29.8,262.6,26.5,262.8,22.1 M272.6,20.2c0.6,0,1.7-0.6,3.3-1.9s2.2-2.2,2-2.7c-0.2-0.5-0.6-1-1.1-1.2    c-0.5-0.3-1-0.5-1.6-0.5c-0.2,0-0.4,0-0.6,0.1c-0.6,0.7-1.1,1.6-1.4,2.5c-0.5,1-0.8,2.1-0.9,3.2C272.3,20,272.4,20.2,272.6,20.2"
   class="st0" />
		<path
   style="fill:#6e8c89;fill-opacity:1"
   id="path30"
   d="M291.3,31c0-3.4,0.4-5.8,1.1-7.2c0.6-1.2,1.8-1.9,3.1-1.8c0.6,0,1.3,0.1,1.8,0.4c1.2,0.5,1.8,1.3,1.8,2.1    c0,0.3-0.1,0.7-0.4,0.9c-0.8,1.2-1.2,2.7-1.2,4.1c0,1.3-0.2,2.7-0.5,4c-0.2,0.6-0.3,1.3-0.3,2c0,0.8,0.1,1.7,0.3,2.5    c0.2,0.8,0.3,1.7,0.3,2.6c0,0.6,0,1.1-0.1,1.7c-0.1,0.5-0.3,0.8-0.7,0.8c-0.8,0.2-1.6,0.4-2.5,0.4c-1.1,0.2-2.2-0.5-2.5-1.5    c-0.4-1.5-0.5-3-0.5-4.5c0-0.7,0-1.8,0.1-3.3S291.3,31.7,291.3,31 M292.9,16.6c-0.3-0.4-0.5-0.9-0.4-1.4c0-1.6,0.4-2.7,1.3-3.2    s1.8-0.8,2.9-0.8c0.8,0,1.6,0.2,2.3,0.7c0.7,0.4,1,1.2,1,2s-0.3,1.6-0.7,2.2c-0.3,0.7-0.8,1.2-1.5,1.6c-0.5,0.3-1.1,0.4-1.6,0.4    C294.8,18.3,293.7,17.7,292.9,16.6"
   class="st0" />
		<path
   style="fill:#6e8c89;fill-opacity:1"
   id="path32"
   d="M304.9,29.2c-0.1-2.6,0.8-5.2,2.5-7.2c1.7-1.9,4.1-3,6.7-2.9c2.9,0,5.6,1.2,7.6,3.3c2.1,2,3.3,4.7,3.3,7.6    c-0.4,1.2-2,2.6-4.8,4.2c-2,1.1-3.9,2.3-5.8,3.7c-0.7,0.3-1.1,0.7-1.1,1.1c0,0.7,0.5,1.3,1.4,1.8c0.7,0.5,1.6,0.7,2.5,0.8    c1.4,0,3.4-0.7,6-2c0.8,0.5,1.2,1.4,1.2,2.4c0,0.8-0.3,1.6-0.8,2.2c-0.5,0.7-1.2,1.1-2,1.2c-1.7,0.3-3.4,0.5-5.1,0.6    c-1.3,0-2.6-0.2-3.9-0.8C307.7,43.1,305.1,37.7,304.9,29.2 M311.8,32.4c3.8-0.2,6-1.5,6.9-4c0.2-0.3,0.3-0.7,0.3-1    c0-0.9-0.6-1.8-1.4-2.2c-0.9-0.6-2-0.8-3.1-0.8c-0.8,0-1.5,0.2-2.2,0.5c-1.2,0.6-1.8,2-1.8,4C310.4,31.2,310.9,32.4,311.8,32.4"
   class="st0" />
	</g>
</g>
</svg>
